<?xml version="1.0" encoding="UTF-8" standalone="no"?>
<!-- Created with Inkscape (http://www.inkscape.org/) -->

<svg
   xmlns:dc="http://purl.org/dc/elements/1.1/"
   xmlns:cc="http://creativecommons.org/ns#"
   xmlns:rdf="http://www.w3.org/1999/02/22-rdf-syntax-ns#"
   xmlns:svg="http://www.w3.org/2000/svg"
   xmlns="http://www.w3.org/2000/svg"
   xmlns:sodipodi="http://sodipodi.sourceforge.net/DTD/sodipodi-0.dtd"
   xmlns:inkscape="http://www.inkscape.org/namespaces/inkscape"
   width="22"
   height="22"
   id="svg3869"
   version="1.1"
   inkscape:version="0.91+devel r"
   sodipodi:docname="akonadi.svg"
   viewBox="0 0 22 22">
  <defs
     id="defs3871" />
  <sodipodi:namedview
     id="base"
     pagecolor="#ffffff"
     bordercolor="#666666"
     borderopacity="1.0"
     inkscape:pageopacity="0.0"
     inkscape:pageshadow="2"
     inkscape:zoom="22.627416"
     inkscape:cx="-7.6738591"
     inkscape:cy="13.245417"
     inkscape:document-units="px"
     inkscape:current-layer="layer1"
     showgrid="true"
     fit-margin-top="0"
     fit-margin-left="0"
     fit-margin-right="0"
     fit-margin-bottom="0"
     inkscape:window-width="2560"
     inkscape:window-height="957"
     inkscape:window-x="-4"
     inkscape:window-y="29"
     inkscape:window-maximized="1"
     inkscape:showpageshadow="false">
    <inkscape:grid
       type="xygrid"
       id="grid4132" />
    <sodipodi:guide
       position="2,20.000017"
       orientation="18,0"
       id="guide4138" />
    <sodipodi:guide
       position="2,2.0000174"
       orientation="0,18"
       id="guide4140" />
    <sodipodi:guide
       position="20,2.0000174"
       orientation="-18,0"
       id="guide4142" />
    <sodipodi:guide
       position="20,20.000017"
       orientation="0,-18"
       id="guide4144" />
    <sodipodi:guide
       position="3,19.000017"
       orientation="16,0"
       id="guide4146" />
    <sodipodi:guide
       position="3,3.0000174"
       orientation="0,16"
       id="guide4148" />
    <sodipodi:guide
       position="19,3.0000174"
       orientation="-16,0"
       id="guide4150" />
    <sodipodi:guide
       position="19,19.000017"
       orientation="0,-16"
       id="guide4152" />
  </sodipodi:namedview>
  <metadata
     id="metadata3874">
    <rdf:RDF>
      <cc:Work
         rdf:about="">
        <dc:format>image/svg+xml</dc:format>
        <dc:type
           rdf:resource="http://purl.org/dc/dcmitype/StillImage" />
        <dc:title />
      </cc:Work>
    </rdf:RDF>
  </metadata>
  <g
     inkscape:label="Capa 1"
     inkscape:groupmode="layer"
     id="layer1"
     transform="translate(-326,-534.3622)">
    <path
       style="opacity:1;fill:#4d4d4d;fill-opacity:1;stroke:none;stroke-width:0.1;stroke-linecap:square;stroke-linejoin:miter;stroke-miterlimit:4;stroke-dasharray:none;stroke-dashoffset:0;stroke-opacity:1"
       d="M 11,3 A 8,1.9999913 0 0 0 3,5 L 3,8.9941406 3,9 3,12.994141 A 8,1.9999913 0 0 0 3,13 l 0,4 a 8,1.9999913 0 0 0 8,2 8,1.9999913 0 0 0 8,-2 l 0,-4 0,-4 0,-4 A 8,1.9999913 0 0 0 11,3 Z m 0,1 A 7,1 0 0 1 18,5 7,1 0 0 1 11,6 7,1 0 0 1 4,5 7,1 0 0 1 11,4 Z M 18,5.9628906 18,8.0332031 18,9 A 7,1 0 0 1 11,10 7,1 0 0 1 4,9 L 4,8.0371094 4,5.9667969 A 8,1.9999913 0 0 0 11,7 8,1.9999913 0 0 0 18,5.9628906 Z m 0,4 0,2.0703124 L 18,13 A 7,1 0 0 1 11,14 7,1 0 0 1 4,13 L 4,12.037109 4,9.9667969 a 8,1.9999913 0 0 0 0.421875,0.1699221 8,1.9999913 0 0 0 1.0332031,0.304687 8,1.9999913 0 0 0 0.5976563,0.128906 8,1.9999913 0 0 0 0.070312,0.01367 8,1.9999913 0 0 0 0.5878906,0.103516 8,1.9999913 0 0 0 0.6933594,0.09961 8,1.9999913 0 0 0 0.00195,0 8,1.9999913 0 0 0 0.1777344,0.01953 8,1.9999913 0 0 0 0.5175781,0.05664 8,1.9999913 0 0 0 0.3066406,0.02539 8,1.9999913 0 0 0 0.4902344,0.04102 8,1.9999913 0 0 0 0.7421875,0.04101 8,1.9999913 0 0 0 0.039063,0.002 8,1.9999913 0 0 0 0.7539065,0.02149 A 8,1.9999913 0 0 0 11,11 a 8,1.9999913 0 0 0 0.798828,-0.0098 8,1.9999913 0 0 0 1.564453,-0.08008 8,1.9999913 0 0 0 0.751953,-0.06836 A 8,1.9999913 0 0 0 17.992188,9.9667969 8,1.9999913 0 0 0 18,9.9628906 Z M 18,13.962891 18,17 a 7,1 0 0 1 -7,1 7,1 0 0 1 -7,-1 l 0,-3.033203 a 8,1.9999913 0 0 0 0.421875,0.169922 8,1.9999913 0 0 0 1.0332031,0.304687 8,1.9999913 0 0 0 0.5976563,0.128906 8,1.9999913 0 0 0 0.070312,0.01367 8,1.9999913 0 0 0 0.5878906,0.103516 8,1.9999913 0 0 0 0.6933594,0.09961 8,1.9999913 0 0 0 0.00195,0 8,1.9999913 0 0 0 0.1777344,0.01953 8,1.9999913 0 0 0 0.5175781,0.05664 8,1.9999913 0 0 0 0.3066406,0.02539 8,1.9999913 0 0 0 0.4902344,0.04102 8,1.9999913 0 0 0 0.7421875,0.04101 8,1.9999913 0 0 0 0.039063,0.002 8,1.9999913 0 0 0 0.7539065,0.02149 A 8,1.9999913 0 0 0 11,15 a 8,1.9999913 0 0 0 0.798828,-0.0098 8,1.9999913 0 0 0 1.564453,-0.08008 8,1.9999913 0 0 0 0.751953,-0.06836 8,1.9999913 0 0 0 3.876954,-0.875 8,1.9999913 0 0 0 0.0078,-0.0039 z"
       transform="translate(326,534.3622)"
       id="akonadi"
       inkscape:connector-curvature="0" />
  </g>
</svg>
