<?xml version="1.0" encoding="UTF-8" standalone="no"?>
<!-- Created with Inkscape (http://www.inkscape.org/) -->

<svg
   xmlns:dc="http://purl.org/dc/elements/1.1/"
   xmlns:cc="http://creativecommons.org/ns#"
   xmlns:rdf="http://www.w3.org/1999/02/22-rdf-syntax-ns#"
   xmlns:svg="http://www.w3.org/2000/svg"
   xmlns="http://www.w3.org/2000/svg"
   xmlns:sodipodi="http://sodipodi.sourceforge.net/DTD/sodipodi-0.dtd"
   xmlns:inkscape="http://www.inkscape.org/namespaces/inkscape"
   width="22"
   height="22"
   id="svg7229"
   sodipodi:version="0.32"
   inkscape:version="0.91+devel r"
   version="1.0"
   sodipodi:docname="audio.svg"
   inkscape:output_extension="org.inkscape.output.svgz.inkscape"
   viewBox="0 0 22 22">
  <defs
     id="defs7231">
    <style
       id="current-color-scheme"
       type="text/css">
      .ColorScheme-Text {
        color:#31363b;
      }
      .ColorScheme-Background{
        color:#eff0f1;
      }
      .ColorScheme-ViewText {
        color:#31363b;
      }
      .ColorScheme-ViewBackground{
        color:#ffffff;
      }
      .ColorScheme-ViewHover {
        color:#000000;
      }
      .ColorScheme-ViewFocus{
        color:#5a5a5a;
      }
      .ColorScheme-ButtonText {
        color:#31363b;
      }
      .ColorScheme-ButtonBackground{
        color:#E9E8E8;
      }
      .ColorScheme-ButtonHover {
        color:#1489ff;
      }
      .ColorScheme-ButtonFocus{
        color:#2B74C7;
      }
</style>
  </defs>
  <sodipodi:namedview
     id="base"
     pagecolor="#ffffff"
     bordercolor="#666666"
     borderopacity="1.0"
     inkscape:pageopacity="0"
     inkscape:pageshadow="2"
     inkscape:zoom="11.61109"
     inkscape:cx="60.192648"
     inkscape:cy="11.836806"
     inkscape:document-units="px"
     inkscape:current-layer="layer1"
     showgrid="true"
     inkscape:window-width="2560"
     inkscape:window-height="957"
     inkscape:window-x="-4"
     inkscape:window-y="29"
     showguides="true"
     inkscape:guide-bbox="true"
     gridtolerance="10000"
     inkscape:window-maximized="1"
     inkscape:snap-bbox="true"
     inkscape:showpageshadow="false"
     borderlayer="true">
    <inkscape:grid
       type="xygrid"
       id="grid3780"
       empspacing="5"
       visible="true"
       enabled="true"
       snapvisiblegridlinesonly="true" />
    <sodipodi:guide
       position="8.2519531e-07,22.000005"
       orientation="22,0"
       id="guide4176" />
    <sodipodi:guide
       position="8.2519531e-07,4.5996094e-06"
       orientation="0,22"
       id="guide4178" />
    <sodipodi:guide
       position="22.000001,4.5996094e-06"
       orientation="-22,0"
       id="guide4180" />
    <sodipodi:guide
       position="22.000001,22.000005"
       orientation="0,-22"
       id="guide4182" />
    <sodipodi:guide
       position="3.0000008,19.000005"
       orientation="16,0"
       id="guide4184" />
    <sodipodi:guide
       position="29,3"
       orientation="0,16"
       id="guide4186" />
    <sodipodi:guide
       position="19.000001,3.0000046"
       orientation="-16,0"
       id="guide4188" />
    <sodipodi:guide
       position="19.000001,19.000005"
       orientation="0,-16"
       id="guide4190" />
  </sodipodi:namedview>
  <metadata
     id="metadata7234">
    <rdf:RDF>
      <cc:Work
         rdf:about="">
        <dc:format>image/svg+xml</dc:format>
        <dc:type
           rdf:resource="http://purl.org/dc/dcmitype/StillImage" />
        <dc:title />
      </cc:Work>
    </rdf:RDF>
  </metadata>
  <g
     inkscape:label="Camada 1"
     inkscape:groupmode="layer"
     id="layer1"
     transform="translate(-214.53572,-404.50504)">
    <g
       id="audio-volume-high">
      <path
         id="path4173"
         d="m 225.52402,407.50499 -4.98828,3.99609 0,1.00391 0,7 0,0.004 4.98828,3.99608 0.0117,0 1,0 0,-0.4707 0,-15.0586 0,-0.4707 -1,0 -0.0117,0 z m 0.0117,1.27148 0,13.45704 -4,-3.20508 0,-7.04687 4,-3.20509 z m 6.0293,0.15821 -0.77149,0.63086 a 11.000019,11 0 0 1 1.74219,5.93945 11.000019,11 0 0 1 -1.75,5.93165 l 0.7832,0.64258 a 12.000019,11.999998 0 0 0 1.9668,-6.57423 12.000019,11.999998 0 0 0 -1.9707,-6.57031 z m -2.33985,1.91602 -0.78125,0.63867 a 8.000012,7.9999986 0 0 1 1.0918,4.01562 8.000012,7.9999986 0 0 1 -1.08984,4.01759 l 0.78125,0.64062 a 9.0000135,8.9999984 0 0 0 1.30859,-4.65821 9.0000135,8.9999984 0 0 0 -1.31055,-4.65429 z m -11.68945,1.65429 0,6 2,0 0,-6 -2,0 z"
         style="opacity:1;fill:#4d4d4d;fill-opacity:1;stroke:none;stroke-width:2.79999995;stroke-miterlimit:4;stroke-dasharray:none;stroke-opacity:0.55026455"
         inkscape:connector-curvature="0" />
      <rect
         y="404.50504"
         x="214.53572"
         height="22.000006"
         width="22"
         id="rect4208"
         style="opacity:1;fill:none;fill-opacity:0.433213;stroke:none;stroke-width:0.1;stroke-linecap:square;stroke-linejoin:miter;stroke-miterlimit:4;stroke-dasharray:none;stroke-dashoffset:0;stroke-opacity:1" />
    </g>
    <g
       id="audio-volume-medium">
      <g
         inkscape:label="Capa 1"
         id="layer1-9"
         transform="translate(-314.74999,-203.14284)">
        <path
           inkscape:connector-curvature="0"
           style="opacity:1;fill:#4d4d4d;fill-opacity:1;stroke:none;stroke-width:2.79999995;stroke-miterlimit:4;stroke-dasharray:none;stroke-opacity:0.55026455"
           d="M 10.988281,3 6,6.9960938 6,8 6,15 6,15.003906 10.988281,19 11,19 12,19 12,18.529297 12,3.4707031 12,3 11,3 10.988281,3 Z M 11,4.2714844 11,17.728516 7,14.523438 7,7.4765625 11,4.2714844 Z M 3,8 3,14 5,14 5,8 3,8 Z"
           transform="translate(551.28571,607.64788)"
           id="path4151-0" />
        <path
           inkscape:connector-curvature="0"
           style="opacity:0.5;fill:#4d4d4d;fill-opacity:1;stroke:none;stroke-width:2.79999995;stroke-miterlimit:4;stroke-dasharray:none;stroke-opacity:0.55026455"
           d="m 568.31501,612.07757 -0.77149,0.63086 a 11.000019,11 0 0 1 1.74219,5.93945 11.000019,11 0 0 1 -1.75,5.93164 l 0.7832,0.64258 a 12.000019,11.999998 0 0 0 1.9668,-6.57422 12.000019,11.999998 0 0 0 -1.9707,-6.57031 z"
           id="path4147-6" />
        <path
           inkscape:connector-curvature="0"
           style="opacity:1;fill:#4d4d4d;fill-opacity:1;stroke:none;stroke-width:2.79999995;stroke-miterlimit:4;stroke-dasharray:none;stroke-opacity:0.55026455"
           d="m 565.97516,613.99358 -0.78125,0.63867 a 8.000012,7.9999986 0 0 1 1.0918,4.01563 8.000012,7.9999986 0 0 1 -1.08984,4.01758 l 0.78125,0.64062 a 9.0000135,8.9999984 0 0 0 1.30859,-4.6582 9.0000135,8.9999984 0 0 0 -1.31055,-4.6543 z"
           id="path4145-3" />
      </g>
      <rect
         style="opacity:1;fill:none;fill-opacity:0.433213;stroke:none;stroke-width:0.1;stroke-linecap:square;stroke-linejoin:miter;stroke-miterlimit:4;stroke-dasharray:none;stroke-dashoffset:0;stroke-opacity:1"
         id="rect4210"
         width="22"
         height="22.000006"
         x="236.53572"
         y="404.50504" />
    </g>
    <g
       id="audio-volume-low">
      <g
         inkscape:label="Capa 1"
         id="layer1-7"
         transform="translate(-292.74999,-203.14284)">
        <path
           inkscape:connector-curvature="0"
           style="opacity:1;fill:#4d4d4d;fill-opacity:1;stroke:none;stroke-width:2.79999995;stroke-miterlimit:4;stroke-dasharray:none;stroke-opacity:0.55026455"
           d="M 10.988281,3 6,6.9960938 6,8 6,15 6,15.003906 10.988281,19 11,19 12,19 12,18.529297 12,3.4707031 12,3 11,3 10.988281,3 Z M 11,4.2714844 11,17.728516 7,14.523438 7,7.4765625 11,4.2714844 Z M 3,8 3,14 5,14 5,8 3,8 Z"
           transform="translate(551.28571,607.64788)"
           id="path4151" />
        <path
           inkscape:connector-curvature="0"
           style="opacity:0.5;fill:#4d4d4d;fill-opacity:1;stroke:none;stroke-width:2.79999995;stroke-miterlimit:4;stroke-dasharray:none;stroke-opacity:0.55026455"
           d="m 568.31501,612.07757 -0.77149,0.63086 a 11.000019,11 0 0 1 1.74219,5.93945 11.000019,11 0 0 1 -1.75,5.93164 l 0.7832,0.64258 a 12.000019,11.999998 0 0 0 1.9668,-6.57422 12.000019,11.999998 0 0 0 -1.9707,-6.57031 z"
           id="path4147" />
        <path
           inkscape:connector-curvature="0"
           style="opacity:0.5;fill:#4d4d4d;fill-opacity:1;stroke:none;stroke-width:2.79999995;stroke-miterlimit:4;stroke-dasharray:none;stroke-opacity:0.55026455"
           d="m 565.97516,613.99358 -0.78125,0.63867 a 8.000012,7.9999986 0 0 1 1.0918,4.01563 8.000012,7.9999986 0 0 1 -1.08984,4.01758 l 0.78125,0.64062 a 9.0000135,8.9999984 0 0 0 1.30859,-4.6582 9.0000135,8.9999984 0 0 0 -1.31055,-4.6543 z"
           id="path4145" />
      </g>
      <rect
         y="404.50504"
         x="258.53571"
         height="22.000006"
         width="22"
         id="rect4212"
         style="opacity:1;fill:none;fill-opacity:0.433213;stroke:none;stroke-width:0.1;stroke-linecap:square;stroke-linejoin:miter;stroke-miterlimit:4;stroke-dasharray:none;stroke-dashoffset:0;stroke-opacity:1" />
    </g>
    <g
       id="audio-volume-muted">
      <g
         transform="translate(73.684194,13.889953)"
         id="g4235">
        <path
           inkscape:connector-curvature="0"
           style="opacity:1;fill:#4d4d4d;fill-opacity:1;stroke:none;stroke-width:2.79999995;stroke-miterlimit:4;stroke-dasharray:none;stroke-opacity:0.55026455"
           d="m 217.83981,393.61504 -4.98828,3.99609 0,1.00391 0,7 0,0.004 4.98828,3.99609 0.0117,0 1,0 0,-0.4707 0,-15.0586 0,-0.4707 -1,0 -0.0117,0 z m 0.0117,1.27148 0,13.45704 -4,-3.20508 0,-7.04688 4,-3.20508 z m -8,3.72852 0,6 2,0 0,-6 -2,0 z"
           id="path4151-2" />
        <rect
           style="opacity:1;fill:#da4453;fill-opacity:1;stroke:none;stroke-opacity:1"
           id="rect4145"
           width="4.9999814"
           height="2"
           x="220.85153"
           y="400.61505" />
      </g>
      <rect
         style="opacity:1;fill:none;fill-opacity:0.433213;stroke:none;stroke-width:0.1;stroke-linecap:square;stroke-linejoin:miter;stroke-miterlimit:4;stroke-dasharray:none;stroke-dashoffset:0;stroke-opacity:1"
         id="rect4239"
         width="22"
         height="22.000006"
         x="280.53571"
         y="404.50504" />
    </g>
  </g>
</svg>
