<?xml version="1.0" encoding="UTF-8" standalone="no"?>
<!-- Created with Inkscape (http://www.inkscape.org/) -->

<svg
   xmlns:dc="http://purl.org/dc/elements/1.1/"
   xmlns:cc="http://creativecommons.org/ns#"
   xmlns:rdf="http://www.w3.org/1999/02/22-rdf-syntax-ns#"
   xmlns:svg="http://www.w3.org/2000/svg"
   xmlns="http://www.w3.org/2000/svg"
   xmlns:sodipodi="http://sodipodi.sourceforge.net/DTD/sodipodi-0.dtd"
   xmlns:inkscape="http://www.inkscape.org/namespaces/inkscape"
   width="22"
   height="22"
   id="svg7229"
   sodipodi:version="0.32"
   inkscape:version="0.91+devel r"
   version="1.0"
   sodipodi:docname="battery.svg"
   inkscape:output_extension="org.inkscape.output.svgz.inkscape"
   viewBox="0 0 22 22">
  <defs
     id="defs7231">
    <style
       id="current-color-scheme"
       type="text/css">
      .ColorScheme-Text {
        color:#31363b;
      }
      .ColorScheme-Background{
        color:#eff0f1;
      }
      .ColorScheme-ViewText {
        color:#31363b;
      }
      .ColorScheme-ViewBackground{
        color:#ffffff;
      }
      .ColorScheme-ViewHover {
        color:#000000;
      }
      .ColorScheme-ViewFocus{
        color:#5a5a5a;
      }
      .ColorScheme-ButtonText {
        color:#31363b;
      }
      .ColorScheme-ButtonBackground{
        color:#E9E8E8;
      }
      .ColorScheme-ButtonHover {
        color:#1489ff;
      }
      .ColorScheme-ButtonFocus{
        color:#2B74C7;
      }
</style>
  </defs>
  <sodipodi:namedview
     id="base"
     pagecolor="#ffffff"
     bordercolor="#666666"
     borderopacity="1.0"
     inkscape:pageopacity="0"
     inkscape:pageshadow="2"
     inkscape:zoom="11.61109"
     inkscape:cx="55.685525"
     inkscape:cy="-5.969676"
     inkscape:document-units="px"
     inkscape:current-layer="layer1"
     showgrid="true"
     inkscape:window-width="2560"
     inkscape:window-height="957"
     inkscape:window-x="-4"
     inkscape:window-y="29"
     showguides="true"
     inkscape:guide-bbox="true"
     gridtolerance="10000"
     inkscape:window-maximized="1"
     inkscape:snap-bbox="true"
     inkscape:showpageshadow="false"
     borderlayer="true">
    <inkscape:grid
       type="xygrid"
       id="grid3780"
       empspacing="5"
       visible="true"
       enabled="true"
       snapvisiblegridlinesonly="true" />
    <sodipodi:guide
       position="8.2519531e-07,22.000005"
       orientation="22,0"
       id="guide4176" />
    <sodipodi:guide
       position="8.2519531e-07,4.5996094e-06"
       orientation="0,22"
       id="guide4178" />
    <sodipodi:guide
       position="22.000001,4.5996094e-06"
       orientation="-22,0"
       id="guide4180" />
    <sodipodi:guide
       position="22.000001,22.000005"
       orientation="0,-22"
       id="guide4182" />
    <sodipodi:guide
       position="3.0000008,19.000005"
       orientation="16,0"
       id="guide4184" />
    <sodipodi:guide
       position="29,3"
       orientation="0,16"
       id="guide4186" />
    <sodipodi:guide
       position="19.000001,3.0000046"
       orientation="-16,0"
       id="guide4188" />
    <sodipodi:guide
       position="19.000001,19.000005"
       orientation="0,-16"
       id="guide4190" />
    <sodipodi:guide
       position="3.0000008,-2.9999954"
       orientation="16,0"
       id="guide4510" />
    <sodipodi:guide
       position="3.0000008,-18.999995"
       orientation="0,16"
       id="guide4512" />
    <sodipodi:guide
       position="19.000001,-18.999995"
       orientation="-16,0"
       id="guide4514" />
    <sodipodi:guide
       position="19.000001,-2.9999954"
       orientation="0,-16"
       id="guide4516" />
  </sodipodi:namedview>
  <metadata
     id="metadata7234">
    <rdf:RDF>
      <cc:Work
         rdf:about="">
        <dc:format>image/svg+xml</dc:format>
        <dc:type
           rdf:resource="http://purl.org/dc/dcmitype/StillImage" />
        <dc:title />
      </cc:Work>
    </rdf:RDF>
  </metadata>
  <g
     inkscape:label="Camada 1"
     inkscape:groupmode="layer"
     id="layer1"
     transform="translate(-214.53572,-404.50504)">
    <g
       id="Battery">
      <rect
         y="404.50504"
         x="214.53572"
         height="22"
         width="22"
         id="rect4185"
         style="opacity:1;fill:none;fill-opacity:1;stroke:none;stroke-width:0.1;stroke-linecap:square;stroke-linejoin:miter;stroke-miterlimit:4;stroke-dasharray:none;stroke-dashoffset:0;stroke-opacity:1" />
      <path
         style="opacity:1;fill:#4d4d4d;fill-opacity:1;stroke:none;stroke-width:0.1;stroke-linecap:square;stroke-linejoin:miter;stroke-miterlimit:4;stroke-dasharray:none;stroke-dashoffset:0;stroke-opacity:1"
         d="M 2 6 L 2 7 L 2 15 L 2 16 L 3 16 L 18 16 L 19 16 L 19 15 L 19 13 L 19.5 13 C 19.777 13 20 12.777 20 12.5 L 20 9.5 C 20 9.223 19.777 9 19.5 9 L 19 9 L 19 7 L 19 6 L 18 6 L 3 6 L 2 6 z M 3 7 L 18 7 L 18 9.5 L 18 12.5 L 18 15 L 3 15 L 3 7 z "
         transform="translate(214.53572,404.50504)"
         id="rect4168" />
    </g>
    <g
       id="Fill100">
      <rect
         style="opacity:1;fill:none;fill-opacity:1;stroke:none;stroke-width:0.1;stroke-linecap:square;stroke-linejoin:miter;stroke-miterlimit:4;stroke-dasharray:none;stroke-dashoffset:0;stroke-opacity:1"
         id="rect4193"
         width="22"
         height="22"
         x="236.53572"
         y="404.50504" />
      <path
         style="opacity:1;fill:#4d4d4d;fill-opacity:1;stroke:none;stroke-width:0.1;stroke-linecap:square;stroke-linejoin:miter;stroke-miterlimit:4;stroke-dasharray:none;stroke-dashoffset:0;stroke-opacity:1"
         d="M 24 6 L 24 7 L 24 15 L 24 16 L 25 16 L 40 16 L 41 16 L 41 15 L 41 13 L 41.5 13 C 41.777 13 42 12.777 42 12.5 L 42 9.5 C 42 9.223 41.777 9 41.5 9 L 41 9 L 41 7 L 41 6 L 40 6 L 25 6 L 24 6 z M 25 7 L 40 7 L 40 9.5 L 40 12.5 L 40 15 L 25 15 L 25 7 z "
         transform="translate(214.53572,404.50504)"
         id="path4191" />
      <path
         inkscape:connector-curvature="0"
         id="path4199"
         d="m 240.53572,418.50504 0,-6 13,0 0,6 z"
         style="fill:#4d4d4d;fill-opacity:1;fill-rule:evenodd;stroke:none;stroke-width:1px;stroke-linecap:butt;stroke-linejoin:miter;stroke-opacity:1" />
    </g>
    <g
       id="Fill90">
      <rect
         y="404.50504"
         x="258.53571"
         height="22"
         width="22"
         id="rect4197"
         style="opacity:1;fill:none;fill-opacity:1;stroke:none;stroke-width:0.1;stroke-linecap:square;stroke-linejoin:miter;stroke-miterlimit:4;stroke-dasharray:none;stroke-dashoffset:0;stroke-opacity:1" />
      <path
         style="opacity:1;fill:#4d4d4d;fill-opacity:1;stroke:none;stroke-width:0.1;stroke-linecap:square;stroke-linejoin:miter;stroke-miterlimit:4;stroke-dasharray:none;stroke-dashoffset:0;stroke-opacity:1"
         d="M 46 6 L 46 7 L 46 15 L 46 16 L 47 16 L 62 16 L 63 16 L 63 15 L 63 13 L 63.5 13 C 63.777 13 64 12.777 64 12.5 L 64 9.5 C 64 9.223 63.777 9 63.5 9 L 63 9 L 63 7 L 63 6 L 62 6 L 47 6 L 46 6 z M 47 7 L 62 7 L 62 9.5 L 62 12.5 L 62 15 L 47 15 L 47 7 z "
         transform="translate(214.53572,404.50504)"
         id="path4195" />
      <path
         sodipodi:nodetypes="ccccc"
         inkscape:connector-curvature="0"
         id="path4201"
         d="m 262.53572,412.50504 0,6 13,0 -2,-6 z"
         style="fill:#4d4d4d;fill-opacity:1;fill-rule:evenodd;stroke:none;stroke-width:1px;stroke-linecap:butt;stroke-linejoin:miter;stroke-opacity:1" />
    </g>
    <g
       id="Fill80">
      <rect
         style="opacity:1;fill:none;fill-opacity:1;stroke:none;stroke-width:0.1;stroke-linecap:square;stroke-linejoin:miter;stroke-miterlimit:4;stroke-dasharray:none;stroke-dashoffset:0;stroke-opacity:1"
         id="rect4203"
         width="22"
         height="22"
         x="280.53571"
         y="404.50504" />
      <path
         style="opacity:1;fill:#4d4d4d;fill-opacity:1;stroke:none;stroke-width:0.1;stroke-linecap:square;stroke-linejoin:miter;stroke-miterlimit:4;stroke-dasharray:none;stroke-dashoffset:0;stroke-opacity:1"
         d="M 68 6 L 68 7 L 68 15 L 68 16 L 69 16 L 84 16 L 85 16 L 85 15 L 85 13 L 85.5 13 C 85.777 13 86 12.777 86 12.5 L 86 9.5 C 86 9.223 85.777 9 85.5 9 L 85 9 L 85 7 L 85 6 L 84 6 L 69 6 L 68 6 z M 69 7 L 84 7 L 84 9.5 L 84 12.5 L 84 15 L 69 15 L 69 7 z "
         transform="translate(214.53572,404.50504)"
         id="path4205" />
      <path
         style="fill:#4d4d4d;fill-opacity:1;fill-rule:evenodd;stroke:none;stroke-width:1px;stroke-linecap:butt;stroke-linejoin:miter;stroke-opacity:1"
         d="m 284.53572,412.50504 0,6 11,0 -2,-6 z"
         id="path4207"
         inkscape:connector-curvature="0"
         sodipodi:nodetypes="ccccc" />
    </g>
    <g
       id="Fill70">
      <rect
         y="404.50504"
         x="302.53571"
         height="22"
         width="22"
         id="rect4209"
         style="opacity:1;fill:none;fill-opacity:1;stroke:none;stroke-width:0.1;stroke-linecap:square;stroke-linejoin:miter;stroke-miterlimit:4;stroke-dasharray:none;stroke-dashoffset:0;stroke-opacity:1" />
      <path
         style="opacity:1;fill:#4d4d4d;fill-opacity:1;stroke:none;stroke-width:0.1;stroke-linecap:square;stroke-linejoin:miter;stroke-miterlimit:4;stroke-dasharray:none;stroke-dashoffset:0;stroke-opacity:1"
         d="M 90 6 L 90 7 L 90 15 L 90 16 L 91 16 L 106 16 L 107 16 L 107 15 L 107 13 L 107.5 13 C 107.777 13 108 12.777 108 12.5 L 108 9.5 C 108 9.223 107.777 9 107.5 9 L 107 9 L 107 7 L 107 6 L 106 6 L 91 6 L 90 6 z M 91 7 L 106 7 L 106 9.5 L 106 12.5 L 106 15 L 91 15 L 91 7 z "
         transform="translate(214.53572,404.50504)"
         id="path4211" />
      <path
         sodipodi:nodetypes="ccccc"
         inkscape:connector-curvature="0"
         id="path4213"
         d="m 306.53572,412.50504 0,6 9,0 -2,-6 z"
         style="fill:#4d4d4d;fill-opacity:1;fill-rule:evenodd;stroke:none;stroke-width:1px;stroke-linecap:butt;stroke-linejoin:miter;stroke-opacity:1" />
    </g>
    <g
       id="Fill60">
      <rect
         style="opacity:1;fill:none;fill-opacity:1;stroke:none;stroke-width:0.1;stroke-linecap:square;stroke-linejoin:miter;stroke-miterlimit:4;stroke-dasharray:none;stroke-dashoffset:0;stroke-opacity:1"
         id="rect4215"
         width="22"
         height="22"
         x="324.53571"
         y="404.50504" />
      <path
         style="opacity:1;fill:#4d4d4d;fill-opacity:1;stroke:none;stroke-width:0.1;stroke-linecap:square;stroke-linejoin:miter;stroke-miterlimit:4;stroke-dasharray:none;stroke-dashoffset:0;stroke-opacity:1"
         d="M 112 6 L 112 7 L 112 15 L 112 16 L 113 16 L 128 16 L 129 16 L 129 15 L 129 13 L 129.5 13 C 129.777 13 130 12.777 130 12.5 L 130 9.5 C 130 9.223 129.777 9 129.5 9 L 129 9 L 129 7 L 129 6 L 128 6 L 113 6 L 112 6 z M 113 7 L 128 7 L 128 9.5 L 128 12.5 L 128 15 L 113 15 L 113 7 z "
         transform="translate(214.53572,404.50504)"
         id="path4217" />
      <path
         style="fill:#4d4d4d;fill-opacity:1;fill-rule:evenodd;stroke:none;stroke-width:1px;stroke-linecap:butt;stroke-linejoin:miter;stroke-opacity:1"
         d="m 328.53572,412.50504 0,6 7,0 -2,-6 z"
         id="path4219"
         inkscape:connector-curvature="0"
         sodipodi:nodetypes="ccccc" />
    </g>
    <g
       id="Fill50">
      <rect
         y="404.50504"
         x="346.53571"
         height="22"
         width="22"
         id="rect4221"
         style="opacity:1;fill:none;fill-opacity:1;stroke:none;stroke-width:0.1;stroke-linecap:square;stroke-linejoin:miter;stroke-miterlimit:4;stroke-dasharray:none;stroke-dashoffset:0;stroke-opacity:1" />
      <path
         style="opacity:1;fill:#4d4d4d;fill-opacity:1;stroke:none;stroke-width:0.1;stroke-linecap:square;stroke-linejoin:miter;stroke-miterlimit:4;stroke-dasharray:none;stroke-dashoffset:0;stroke-opacity:1"
         d="M 134 6 L 134 7 L 134 15 L 134 16 L 135 16 L 150 16 L 151 16 L 151 15 L 151 13 L 151.5 13 C 151.777 13 152 12.777 152 12.5 L 152 9.5 C 152 9.223 151.777 9 151.5 9 L 151 9 L 151 7 L 151 6 L 150 6 L 135 6 L 134 6 z M 135 7 L 150 7 L 150 9.5 L 150 12.5 L 150 15 L 135 15 L 135 7 z "
         transform="translate(214.53572,404.50504)"
         id="path4223" />
      <path
         sodipodi:nodetypes="ccccc"
         inkscape:connector-curvature="0"
         id="path4225"
         d="m 350.53572,412.50504 0,6 5,0 -2,-6 z"
         style="fill:#4d4d4d;fill-opacity:1;fill-rule:evenodd;stroke:none;stroke-width:1px;stroke-linecap:butt;stroke-linejoin:miter;stroke-opacity:1" />
    </g>
    <g
       id="Fill40">
      <rect
         style="opacity:1;fill:none;fill-opacity:1;stroke:none;stroke-width:0.1;stroke-linecap:square;stroke-linejoin:miter;stroke-miterlimit:4;stroke-dasharray:none;stroke-dashoffset:0;stroke-opacity:1"
         id="rect4227"
         width="22"
         height="22"
         x="368.53571"
         y="404.50504" />
      <path
         style="opacity:1;fill:#4d4d4d;fill-opacity:1;stroke:none;stroke-width:0.1;stroke-linecap:square;stroke-linejoin:miter;stroke-miterlimit:4;stroke-dasharray:none;stroke-dashoffset:0;stroke-opacity:1"
         d="M 156 6 L 156 7 L 156 15 L 156 16 L 157 16 L 172 16 L 173 16 L 173 15 L 173 13 L 173.5 13 C 173.777 13 174 12.777 174 12.5 L 174 9.5 C 174 9.223 173.777 9 173.5 9 L 173 9 L 173 7 L 173 6 L 172 6 L 157 6 L 156 6 z M 157 7 L 172 7 L 172 9.5 L 172 12.5 L 172 15 L 157 15 L 157 7 z "
         transform="translate(214.53572,404.50504)"
         id="path4229" />
      <path
         style="fill:#4d4d4d;fill-opacity:1;fill-rule:evenodd;stroke:none;stroke-width:1px;stroke-linecap:butt;stroke-linejoin:miter;stroke-opacity:1"
         d="m 372.53572,412.50504 0,6 3,0 -2,-6 z"
         id="path4231"
         inkscape:connector-curvature="0"
         sodipodi:nodetypes="ccccc" />
    </g>
    <g
       id="Fill30">
      <rect
         y="404.50504"
         x="390.53571"
         height="22"
         width="22"
         id="rect4233"
         style="opacity:1;fill:none;fill-opacity:1;stroke:none;stroke-width:0.1;stroke-linecap:square;stroke-linejoin:miter;stroke-miterlimit:4;stroke-dasharray:none;stroke-dashoffset:0;stroke-opacity:1" />
      <path
         style="opacity:1;fill:#4d4d4d;fill-opacity:1;stroke:none;stroke-width:0.1;stroke-linecap:square;stroke-linejoin:miter;stroke-miterlimit:4;stroke-dasharray:none;stroke-dashoffset:0;stroke-opacity:1"
         d="M 178 6 L 178 7 L 178 15 L 178 16 L 179 16 L 194 16 L 195 16 L 195 15 L 195 13 L 195.5 13 C 195.777 13 196 12.777 196 12.5 L 196 9.5 C 196 9.223 195.777 9 195.5 9 L 195 9 L 195 7 L 195 6 L 194 6 L 179 6 L 178 6 z M 179 7 L 194 7 L 194 9.5 L 194 12.5 L 194 15 L 179 15 L 179 7 z "
         transform="translate(214.53572,404.50504)"
         id="path4235" />
      <path
         sodipodi:nodetypes="ccccc"
         inkscape:connector-curvature="0"
         id="path4237"
         d="m 394.53572,412.50504 0,6 2,0 -2,-6 z"
         style="fill:#4d4d4d;fill-opacity:1;fill-rule:evenodd;stroke:none;stroke-width:1px;stroke-linecap:butt;stroke-linejoin:miter;stroke-opacity:1" />
    </g>
    <g
       id="Fill20">
      <rect
         style="opacity:1;fill:none;fill-opacity:1;stroke:none;stroke-width:0.1;stroke-linecap:square;stroke-linejoin:miter;stroke-miterlimit:4;stroke-dasharray:none;stroke-dashoffset:0;stroke-opacity:1"
         id="rect4239"
         width="22"
         height="22"
         x="412.53571"
         y="404.50504" />
      <path
         style="opacity:1;fill:#da4453;fill-opacity:1;stroke:none;stroke-width:0.1;stroke-linecap:square;stroke-linejoin:miter;stroke-miterlimit:4;stroke-dasharray:none;stroke-dashoffset:0;stroke-opacity:1"
         d="M 200 6 L 200 7 L 200 15 L 200 16 L 201 16 L 216 16 L 217 16 L 217 15 L 217 13 L 217.5 13 C 217.777 13 218 12.777 218 12.5 L 218 9.5 C 218 9.223 217.777 9 217.5 9 L 217 9 L 217 7 L 217 6 L 216 6 L 201 6 L 200 6 z M 201 7 L 216 7 L 216 9.5 L 216 12.5 L 216 15 L 201 15 L 201 7 z "
         transform="translate(214.53572,404.50504)"
         id="path4241" />
      <path
         style="fill:#da4453;fill-opacity:1;fill-rule:evenodd;stroke:none;stroke-width:1px;stroke-linecap:butt;stroke-linejoin:miter;stroke-opacity:1"
         d="m 416.53572,412.50504 0,6 2,0 -2,-6 z"
         id="path4243"
         inkscape:connector-curvature="0"
         sodipodi:nodetypes="ccccc" />
    </g>
    <g
       id="Fill10"
       transform="translate(22)">
      <rect
         y="404.50504"
         x="412.53571"
         height="22"
         width="22"
         id="rect4336"
         style="opacity:1;fill:none;fill-opacity:1;stroke:none;stroke-width:0.1;stroke-linecap:square;stroke-linejoin:miter;stroke-miterlimit:4;stroke-dasharray:none;stroke-dashoffset:0;stroke-opacity:1" />
      <path
         style="opacity:1;fill:#da4453;fill-opacity:1;stroke:none;stroke-width:0.1;stroke-linecap:square;stroke-linejoin:miter;stroke-miterlimit:4;stroke-dasharray:none;stroke-dashoffset:0;stroke-opacity:1"
         d="M 222 6 L 222 7 L 222 15 L 222 16 L 223 16 L 238 16 L 239 16 L 239 15 L 239 13 L 239.5 13 C 239.777 13 240 12.777 240 12.5 L 240 9.5 C 240 9.223 239.777 9 239.5 9 L 239 9 L 239 7 L 239 6 L 238 6 L 223 6 L 222 6 z M 223 7 L 238 7 L 238 9.5 L 238 12.5 L 238 15 L 223 15 L 223 7 z "
         transform="translate(192.53572,404.50504)"
         id="path4338" />
      <path
         sodipodi:nodetypes="cccc"
         inkscape:connector-curvature="0"
         id="path4340"
         d="m 416.53572,412.50504 0,6 1,0 z"
         style="fill:#da4453;fill-opacity:1;fill-rule:evenodd;stroke:none;stroke-width:1px;stroke-linecap:butt;stroke-linejoin:miter;stroke-opacity:1" />
    </g>
    <g
       transform="translate(44)"
       id="Fill0">
      <rect
         style="opacity:1;fill:none;fill-opacity:1;stroke:none;stroke-width:0.1;stroke-linecap:square;stroke-linejoin:miter;stroke-miterlimit:4;stroke-dasharray:none;stroke-dashoffset:0;stroke-opacity:1"
         id="rect4344"
         width="22"
         height="22"
         x="412.53571"
         y="404.50504" />
      <path
         style="opacity:1;fill:#da4453;fill-opacity:1;stroke:none;stroke-width:0.1;stroke-linecap:square;stroke-linejoin:miter;stroke-miterlimit:4;stroke-dasharray:none;stroke-dashoffset:0;stroke-opacity:1"
         d="M 244 6 L 244 7 L 244 15 L 244 16 L 245 16 L 260 16 L 261 16 L 261 15 L 261 13 L 261.5 13 C 261.777 13 262 12.777 262 12.5 L 262 9.5 C 262 9.223 261.777 9 261.5 9 L 261 9 L 261 7 L 261 6 L 260 6 L 245 6 L 244 6 z M 245 7 L 260 7 L 260 9.5 L 260 12.5 L 260 15 L 245 15 L 245 7 z "
         transform="translate(170.53572,404.50504)"
         id="path4346" />
    </g>
    <g
       id="battery-ups">
      <rect
         style="opacity:1;fill:none;fill-opacity:1;stroke:none;stroke-width:0.1;stroke-linecap:square;stroke-linejoin:miter;stroke-miterlimit:4;stroke-dasharray:none;stroke-dashoffset:0;stroke-opacity:1"
         id="rect4416"
         width="22"
         height="22"
         x="214.53572"
         y="426.50504" />
      <path
         id="rect4552"
         transform="translate(214.53572,404.50504)"
         d="m 5,25 0,16 12,0 0,-16 -12,0 z m 1,1 10,0 0,14 -10,0 0,-14 z m 5,1 -2,5 2,0 0,3 2,-5 -2,0 0,-3 z m -4,10 0,2 1,0 0,-2 -1,0 z m 2,0 0,2 1,0 0,-2 -1,0 z m 2,0 0,2 1,0 0,-2 -1,0 z m 3,0 a 1,1 0 0 0 -1,1 1,1 0 0 0 1,1 1,1 0 0 0 1,-1 1,1 0 0 0 -1,-1 z"
         style="opacity:1;fill:#4d4d4d;fill-opacity:1;stroke:none;stroke-width:0.1;stroke-linecap:square;stroke-linejoin:miter;stroke-miterlimit:4;stroke-dasharray:none;stroke-dashoffset:0;stroke-opacity:1"
         inkscape:connector-curvature="0" />
    </g>
    <g
       id="AcAdapter">
      <rect
         y="426.50504"
         x="236.53572"
         height="22"
         width="22"
         id="rect4185-5"
         style="opacity:1;fill:none;fill-opacity:1;stroke:none;stroke-width:0.1;stroke-linecap:square;stroke-linejoin:miter;stroke-miterlimit:4;stroke-dasharray:none;stroke-dashoffset:0;stroke-opacity:1" />
      <path
         id="path4600"
         transform="translate(214.53572,404.50504)"
         d="m 33,30 a 3,3 0 0 0 -2.826172,2 L 29,32 l 0,2 1.175781,0 A 3,3 0 0 0 33,36 l 0,-1.099609 2,0 0,-1 -2,0 L 33,32 l 2,0 0,-1 -2,0 0,-1 z"
         style="opacity:1;fill:#4d4d4d;fill-opacity:1;stroke:none;stroke-width:0.1;stroke-linecap:square;stroke-linejoin:miter;stroke-miterlimit:4;stroke-dasharray:none;stroke-dashoffset:0;stroke-opacity:1"
         inkscape:connector-curvature="0" />
    </g>
    <g
       id="Unavailable">
      <rect
         style="opacity:1;fill:none;fill-opacity:1;stroke:none;stroke-width:0.1;stroke-linecap:square;stroke-linejoin:miter;stroke-miterlimit:4;stroke-dasharray:none;stroke-dashoffset:0;stroke-opacity:1"
         id="rect4614"
         width="22"
         height="22"
         x="258.53571"
         y="426.50504" />
      <path
         id="rect4622"
         transform="translate(214.53572,404.50504)"
         d="M 51.707031,30 51,30.707031 53.292969,33 51,35.292969 51.707031,36 54,33.707031 56.292969,36 57,35.292969 54.707031,33 57,30.707031 56.292969,30 54,32.292969 51.707031,30 Z"
         style="opacity:1;fill:#da4453;fill-opacity:1;stroke:none;stroke-width:0.11169153;stroke-linecap:square;stroke-linejoin:miter;stroke-miterlimit:4;stroke-dasharray:none;stroke-dashoffset:0;stroke-opacity:1"
         inkscape:connector-curvature="0" />
    </g>
  </g>
</svg>
