<?xml version="1.0" encoding="UTF-8" standalone="no"?>
<!-- Created with Inkscape (http://www.inkscape.org/) -->

<svg
   xmlns:dc="http://purl.org/dc/elements/1.1/"
   xmlns:cc="http://creativecommons.org/ns#"
   xmlns:rdf="http://www.w3.org/1999/02/22-rdf-syntax-ns#"
   xmlns:svg="http://www.w3.org/2000/svg"
   xmlns="http://www.w3.org/2000/svg"
   xmlns:sodipodi="http://sodipodi.sourceforge.net/DTD/sodipodi-0.dtd"
   xmlns:inkscape="http://www.inkscape.org/namespaces/inkscape"
   width="32"
   height="32"
   id="svg3869"
   version="1.1"
   inkscape:version="0.91+devel r"
   sodipodi:docname="computer.svg"
   viewBox="0 0 32 32">
  <defs
     id="defs3871" />
  <sodipodi:namedview
     id="base"
     pagecolor="#ffffff"
     bordercolor="#666666"
     borderopacity="1.0"
     inkscape:pageopacity="0.0"
     inkscape:pageshadow="2"
     inkscape:zoom="8"
     inkscape:cx="-40.416362"
     inkscape:cy="42.028107"
     inkscape:document-units="px"
     inkscape:current-layer="layer1"
     showgrid="true"
     fit-margin-top="0"
     fit-margin-left="0"
     fit-margin-right="0"
     fit-margin-bottom="0"
     inkscape:window-width="2560"
     inkscape:window-height="957"
     inkscape:window-x="-4"
     inkscape:window-y="29"
     inkscape:window-maximized="1"
     inkscape:showpageshadow="false"
     showguides="true">
    <inkscape:grid
       type="xygrid"
       id="grid4132"
       originx="5"
       originy="4.9999904" />
    <sodipodi:guide
       position="7,25.000008"
       orientation="18,0"
       id="guide4138" />
    <sodipodi:guide
       position="7,7.0000078"
       orientation="0,18"
       id="guide4140" />
    <sodipodi:guide
       position="25,7.0000078"
       orientation="-18,0"
       id="guide4142" />
    <sodipodi:guide
       position="25,25.000008"
       orientation="0,-18"
       id="guide4144" />
    <sodipodi:guide
       position="8,24.000008"
       orientation="16,0"
       id="guide4146" />
    <sodipodi:guide
       position="8,8.0000078"
       orientation="0,16"
       id="guide4148" />
    <sodipodi:guide
       position="24,8.0000078"
       orientation="-16,0"
       id="guide4150" />
    <sodipodi:guide
       position="24,24.000008"
       orientation="0,-16"
       id="guide4152" />
    <sodipodi:guide
       position="2,30.000005"
       orientation="28,0"
       id="guide4265" />
    <sodipodi:guide
       position="2,2.0000052"
       orientation="0,28"
       id="guide4267" />
    <sodipodi:guide
       position="30,2.0000052"
       orientation="-28,0"
       id="guide4269" />
    <sodipodi:guide
       position="30,30.000005"
       orientation="0,-28"
       id="guide4271" />
    <sodipodi:guide
       position="0,32.000002"
       orientation="32,0"
       id="guide4171" />
    <sodipodi:guide
       position="0,2.6343748e-06"
       orientation="0,32"
       id="guide4173" />
    <sodipodi:guide
       position="32,2.6343748e-06"
       orientation="-32,0"
       id="guide4175" />
    <sodipodi:guide
       position="32,32.000002"
       orientation="0,-32"
       id="guide4177" />
    <sodipodi:guide
       position="3,29.000002"
       orientation="26,0"
       id="guide4179" />
    <sodipodi:guide
       position="3,3.0000026"
       orientation="0,26"
       id="guide4181" />
    <sodipodi:guide
       position="29,3.0000026"
       orientation="-26,0"
       id="guide4183" />
    <sodipodi:guide
       position="29,29.000002"
       orientation="0,-26"
       id="guide4185" />
    <sodipodi:guide
       position="2,30.000002"
       orientation="28,0"
       id="guide4187" />
    <sodipodi:guide
       position="2,2.0000026"
       orientation="0,28"
       id="guide4189" />
    <sodipodi:guide
       position="30,2.0000026"
       orientation="-28,0"
       id="guide4191" />
    <sodipodi:guide
       position="30,30.000002"
       orientation="0,-28"
       id="guide4193" />
  </sodipodi:namedview>
  <metadata
     id="metadata3874">
    <rdf:RDF>
      <cc:Work
         rdf:about="">
        <dc:format>image/svg+xml</dc:format>
        <dc:type
           rdf:resource="http://purl.org/dc/dcmitype/StillImage" />
        <dc:title />
      </cc:Work>
    </rdf:RDF>
  </metadata>
  <g
     inkscape:label="Capa 1"
     inkscape:groupmode="layer"
     id="layer1"
     transform="translate(-321,-529.36218)">
    <g
       id="computer">
      <rect
         y="529.36218"
         x="281"
         height="32"
         width="32"
         id="rect4275"
         style="opacity:1;fill:none;fill-opacity:1;stroke:none;stroke-width:0.14545454;stroke-linecap:square;stroke-linejoin:miter;stroke-miterlimit:4;stroke-dasharray:none;stroke-dashoffset:0;stroke-opacity:1" />
      <path
         inkscape:connector-curvature="0"
         id="rect4216"
         d="m 282,532.36218 0,1 0,18 0,3 14,0 0,3 -4,0 0,1 4,0 2,0 4,0 0,-1 -4,0 0,-3 14,0 0,-3 0,-19 -30,0 z m 1,1 28,0 0,18 -28,0 0,-18 z"
         style="opacity:1;fill:#4d4d4d;fill-opacity:1;stroke:none;stroke-width:0.1;stroke-linecap:square;stroke-linejoin:miter;stroke-miterlimit:4;stroke-dasharray:none;stroke-dashoffset:0;stroke-opacity:1" />
    </g>
    <g
       id="computer-laptop">
      <rect
         style="opacity:1;fill:none;fill-opacity:1;stroke:none;stroke-width:0.14545454;stroke-linecap:square;stroke-linejoin:miter;stroke-miterlimit:4;stroke-dasharray:none;stroke-dashoffset:0;stroke-opacity:1"
         id="rect4231"
         width="32"
         height="32"
         x="321"
         y="529.36218" />
      <path
         sodipodi:nodetypes="cccccccccccccccccccc"
         inkscape:connector-curvature="0"
         id="rect4249"
         transform="translate(321,529.36218)"
         d="m 3,8 0,19 -1,0 0,2 1,0 26,0 1,0 0,-2 -1,0 0,-19 z m 1,1 11,0 0,1 3,0 0,-1 10,0 0,17 -24,0 z"
         style="opacity:1;fill:#4d4d4d;fill-opacity:1;stroke:none;stroke-width:0.1;stroke-linecap:square;stroke-linejoin:miter;stroke-miterlimit:4;stroke-dasharray:none;stroke-dashoffset:0;stroke-opacity:1" />
    </g>
    <g
       id="22-22-computer">
      <rect
         style="opacity:1;fill:none;fill-opacity:1;stroke:none;stroke-width:0.1;stroke-linecap:square;stroke-linejoin:miter;stroke-miterlimit:4;stroke-dasharray:none;stroke-dashoffset:0;stroke-opacity:1"
         id="rect4261"
         width="22"
         height="22"
         x="286"
         y="506.36218" />
      <path
         style="color:#000000;text-decoration:none;text-decoration-line:none;text-decoration-style:solid;text-decoration-color:#000000;clip-rule:nonzero;display:inline;overflow:visible;visibility:visible;opacity:1;isolation:auto;mix-blend-mode:normal;color-interpolation:sRGB;color-interpolation-filters:linearRGB;solid-color:#000000;solid-opacity:1;fill:#4d4d4d;fill-opacity:1;fill-rule:nonzero;stroke:none;stroke-width:1;stroke-linecap:butt;stroke-linejoin:miter;stroke-miterlimit:4;stroke-dasharray:none;stroke-dashoffset:0;stroke-opacity:1;color-rendering:auto;image-rendering:auto;shape-rendering:auto;text-rendering:auto;enable-background:accumulate"
         d="m 288,509.36218 0,1 0,12 1,0 7,0 0,2 -2,0 0,1 1,0 4,0 1,0 0,-1 -2,0 0,-2 8,0 0,-2 0,-11 z m 1,1 16,0 0,10 -16,0 z"
         id="path4263"
         inkscape:connector-curvature="0"
         sodipodi:nodetypes="ccccccccccccccccccccccc" />
    </g>
    <g
       id="16-16-computer">
      <rect
         y="487.36218"
         x="288"
         height="18"
         width="18"
         id="rect4265"
         style="opacity:1;fill:none;fill-opacity:1;stroke:none;stroke-width:0.08181821;stroke-linecap:square;stroke-linejoin:miter;stroke-miterlimit:4;stroke-dasharray:none;stroke-dashoffset:0;stroke-opacity:1" />
      <path
         inkscape:connector-curvature="0"
         style="opacity:1;fill:#4d4d4d;fill-opacity:1;stroke:none;stroke-width:0.1;stroke-linecap:square;stroke-linejoin:miter;stroke-miterlimit:4;stroke-dasharray:none;stroke-dashoffset:0;stroke-opacity:1"
         d="m 289,489.36218 0,12 7,0 0,1 -1,0 0,1 4,0 0,-1 -1,0 0,-1 7,0 0,-12 -16,0 z m 1,1 14,0 0,9 -14,0 0,-9 z"
         id="path4267" />
    </g>
    <g
       id="22-22-computer-laptop">
      <rect
         y="506.36218"
         x="326"
         height="22"
         width="22"
         id="rect4229"
         style="opacity:1;fill:none;fill-opacity:1;stroke:none;stroke-width:0.1;stroke-linecap:square;stroke-linejoin:miter;stroke-miterlimit:4;stroke-dasharray:none;stroke-dashoffset:0;stroke-opacity:1" />
      <path
         style="opacity:1;fill:#4d4d4d;fill-opacity:1;stroke:none;stroke-width:0.1;stroke-linecap:square;stroke-linejoin:miter;stroke-miterlimit:4;stroke-dasharray:none;stroke-dashoffset:0;stroke-opacity:1"
         d="m 328,511.36218 0,12 -1,0 0,2 1,0 18,0 1,0 0,-2 -1,0 0,-12 z m 1,1 7,0 0,1 3,0 0,-1 6,0 0,10 -16,0 z"
         id="path4271"
         inkscape:connector-curvature="0"
         sodipodi:nodetypes="cccccccccccccccccccc" />
    </g>
    <g
       id="16-16-computer-laptop">
      <rect
         style="opacity:1;fill:none;fill-opacity:1;stroke:none;stroke-width:0.08181821;stroke-linecap:square;stroke-linejoin:miter;stroke-miterlimit:4;stroke-dasharray:none;stroke-dashoffset:0;stroke-opacity:1"
         id="rect4233"
         width="18"
         height="18"
         x="328"
         y="487.36218" />
      <path
         sodipodi:nodetypes="cccccccccccccccccccc"
         inkscape:connector-curvature="0"
         id="path4273"
         d="m 330,491.36218 0,10 -1,0 0,2 1,0 14,0 1,0 0,-2 -1,0 0,-10 z m 1,1 5,0 0,1 3,0 0,-1 4,0 0,8 -12,0 z"
         style="opacity:1;fill:#4d4d4d;fill-opacity:1;stroke:none;stroke-width:0.1;stroke-linecap:square;stroke-linejoin:miter;stroke-miterlimit:4;stroke-dasharray:none;stroke-dashoffset:0;stroke-opacity:1" />
    </g>
  </g>
</svg>
