<?xml version="1.0" encoding="UTF-8" standalone="no"?>
<!-- Created with Inkscape (http://www.inkscape.org/) -->

<svg
   xmlns:dc="http://purl.org/dc/elements/1.1/"
   xmlns:cc="http://creativecommons.org/ns#"
   xmlns:rdf="http://www.w3.org/1999/02/22-rdf-syntax-ns#"
   xmlns:svg="http://www.w3.org/2000/svg"
   xmlns="http://www.w3.org/2000/svg"
   xmlns:sodipodi="http://sodipodi.sourceforge.net/DTD/sodipodi-0.dtd"
   xmlns:inkscape="http://www.inkscape.org/namespaces/inkscape"
   width="32"
   height="32"
   id="svg3869"
   version="1.1"
   inkscape:version="0.91+devel r"
   sodipodi:docname="device.svg"
   viewBox="0 0 32 32">
  <defs
     id="defs3871" />
  <sodipodi:namedview
     id="base"
     pagecolor="#ffffff"
     bordercolor="#666666"
     borderopacity="1.0"
     inkscape:pageopacity="0.0"
     inkscape:pageshadow="2"
     inkscape:zoom="32"
     inkscape:cx="14.844221"
     inkscape:cy="13.120404"
     inkscape:document-units="px"
     inkscape:current-layer="layer1"
     showgrid="true"
     fit-margin-top="0"
     fit-margin-left="0"
     fit-margin-right="0"
     fit-margin-bottom="0"
     inkscape:window-width="2560"
     inkscape:window-height="957"
     inkscape:window-x="-4"
     inkscape:window-y="29"
     inkscape:window-maximized="1"
     inkscape:showpageshadow="false">
    <inkscape:grid
       type="xygrid"
       id="grid4132"
       originx="5"
       originy="4.9999826" />
    <sodipodi:guide
       position="7,25"
       orientation="18,0"
       id="guide4138" />
    <sodipodi:guide
       position="7,7"
       orientation="0,18"
       id="guide4140" />
    <sodipodi:guide
       position="25,7"
       orientation="-18,0"
       id="guide4142" />
    <sodipodi:guide
       position="25,25"
       orientation="0,-18"
       id="guide4144" />
    <sodipodi:guide
       position="8,24"
       orientation="16,0"
       id="guide4146" />
    <sodipodi:guide
       position="8,8"
       orientation="0,16"
       id="guide4148" />
    <sodipodi:guide
       position="24,8"
       orientation="-16,0"
       id="guide4150" />
    <sodipodi:guide
       position="24,24"
       orientation="0,-16"
       id="guide4152" />
    <sodipodi:guide
       position="0,31.999997"
       orientation="32,0"
       id="guide4180" />
    <sodipodi:guide
       position="0,-2.6171875e-06"
       orientation="0,32"
       id="guide4182" />
    <sodipodi:guide
       position="32,-2.6171875e-06"
       orientation="-32,0"
       id="guide4184" />
    <sodipodi:guide
       position="32,31.999997"
       orientation="0,-32"
       id="guide4186" />
    <sodipodi:guide
       position="2,29.999997"
       orientation="28,0"
       id="guide4188" />
    <sodipodi:guide
       position="2,1.9999974"
       orientation="0,28"
       id="guide4190" />
    <sodipodi:guide
       position="30,1.9999974"
       orientation="-28,0"
       id="guide4192" />
    <sodipodi:guide
       position="30,29.999997"
       orientation="0,-28"
       id="guide4194" />
  </sodipodi:namedview>
  <metadata
     id="metadata3874">
    <rdf:RDF>
      <cc:Work
         rdf:about="">
        <dc:format>image/svg+xml</dc:format>
        <dc:type
           rdf:resource="http://purl.org/dc/dcmitype/StillImage" />
        <dc:title></dc:title>
      </cc:Work>
    </rdf:RDF>
  </metadata>
  <g
     inkscape:label="Capa 1"
     inkscape:groupmode="layer"
     id="layer1"
     transform="translate(-321,-529.36218)">
    <path
       style="opacity:1;fill:#4d4d4d;fill-opacity:1;stroke:none;stroke-width:0.1;stroke-linecap:square;stroke-linejoin:miter;stroke-miterlimit:4;stroke-dasharray:none;stroke-dashoffset:0;stroke-opacity:1"
       d="M 9 2 L 9 16 L 8 16 L 7 16 L 7 30 L 8 30 L 24 30 L 25 30 L 25 16 L 24 16 L 23 16 L 23 2 L 9 2 z M 10 5 L 12 5 L 12 13 L 10 13 L 10 5 z M 20 5 L 22 5 L 22 13 L 20 13 L 20 5 z M 13 8 L 15 8 L 15 13 L 13 13 L 13 8 z M 17 8 L 19 8 L 19 13 L 17 13 L 17 8 z M 8 17 L 24 17 L 24 29 L 8 29 L 8 17 z M 16 18 L 14 20 L 18 20 L 16 18 z M 10 25 L 10 26 L 22 26 L 22 25 L 10 25 z M 11 27 L 11 28 L 21 28 L 21 27 L 11 27 z "
       transform="translate(321,529.36218)"
       id="rect4196" />
  </g>
</svg>
