<?xml version="1.0" encoding="UTF-8" standalone="no"?>
<svg
   xmlns:dc="http://purl.org/dc/elements/1.1/"
   xmlns:cc="http://creativecommons.org/ns#"
   xmlns:rdf="http://www.w3.org/1999/02/22-rdf-syntax-ns#"
   xmlns:svg="http://www.w3.org/2000/svg"
   xmlns="http://www.w3.org/2000/svg"
   xmlns:sodipodi="http://sodipodi.sourceforge.net/DTD/sodipodi-0.dtd"
   xmlns:inkscape="http://www.inkscape.org/namespaces/inkscape"
   viewBox="0 0 22 22"
   id="svg"
   version="1.1"
   inkscape:version="0.91 r13725"
   width="100%"
   height="100%"
   sodipodi:docname="document.svg">
  <defs
     id="defs81">
    <style
       id="current-color-scheme"
       type="text/css">
      .ColorScheme-Text {
        color:#7B7C7E;
      }
      .ColorScheme-Background{
        color:#EFF0F1;
      }
      .ColorScheme-Highlight{
        color:#3DAEE6;
      }
      .ColorScheme-ViewText {
        color:#7B7C7E;
      }
      .ColorScheme-ViewBackground{
        color:#FCFCFC;
      }
      .ColorScheme-ViewHover {
        color:#3DAEE6;
      }
      .ColorScheme-ViewFocus{
        color:#1E92FF;
      }
      .ColorScheme-ButtonText {
        color:#7B7C7E;
      }
      .ColorScheme-ButtonBackground{
        color:#EFF0F1;
      }
      .ColorScheme-ButtonHover {
        color:#3DAEE6;
      }
      .ColorScheme-ButtonFocus{
        color:#1E92FF;
      }
</style>
  </defs>
  <metadata
     id="metadata34">
    <rdf:RDF>
      <cc:Work
         rdf:about="">
        <dc:format>image/svg+xml</dc:format>
        <dc:type
           rdf:resource="http://purl.org/dc/dcmitype/StillImage" />
        <dc:title></dc:title>
      </cc:Work>
    </rdf:RDF>
  </metadata>
  <sodipodi:namedview
     pagecolor="#ffffff"
     bordercolor="#666666"
     borderopacity="1"
     objecttolerance="10"
     gridtolerance="10000"
     guidetolerance="10"
     inkscape:pageopacity="0"
     inkscape:pageshadow="2"
     inkscape:window-width="2560"
     inkscape:window-height="1027"
     id="namedview32"
     showgrid="true"
     inkscape:zoom="11.313709"
     inkscape:cx="-14.820622"
     inkscape:cy="7.8486051"
     inkscape:window-x="-8"
     inkscape:window-y="-8"
     inkscape:window-maximized="1"
     inkscape:current-layer="svg"
     borderlayer="true"
     showguides="true"
     inkscape:guide-bbox="true"
     inkscape:snap-bbox="true"
     inkscape:showpageshadow="false">
    <inkscape:grid
       type="xygrid"
       id="grid3046"
       empspacing="5"
       visible="true"
       enabled="true"
       snapvisiblegridlinesonly="true" />
    <sodipodi:guide
       position="0,22"
       orientation="22,0"
       id="guide4208" />
    <sodipodi:guide
       position="0,0"
       orientation="0,22"
       id="guide4210" />
    <sodipodi:guide
       position="22,0"
       orientation="-22,0"
       id="guide4212" />
    <sodipodi:guide
       position="22,22"
       orientation="0,-22"
       id="guide4214" />
    <sodipodi:guide
       position="3,19"
       orientation="16,0"
       id="guide4216" />
    <sodipodi:guide
       position="3,3"
       orientation="0,16"
       id="guide4218" />
    <sodipodi:guide
       position="19,3"
       orientation="-16,0"
       id="guide4220" />
    <sodipodi:guide
       position="19,19"
       orientation="0,-16"
       id="guide4222" />
    <sodipodi:guide
       position="-5,27"
       orientation="32,0"
       id="guide4226" />
    <sodipodi:guide
       position="-5,-5"
       orientation="0,32"
       id="guide4228" />
    <sodipodi:guide
       position="27,-5"
       orientation="-32,0"
       id="guide4230" />
    <sodipodi:guide
       position="27,27"
       orientation="0,-32"
       id="guide4232" />
    <sodipodi:guide
       position="-3,25"
       orientation="28,0"
       id="guide4236" />
    <sodipodi:guide
       position="-3,-3"
       orientation="0,28"
       id="guide4238" />
    <sodipodi:guide
       position="25,-3"
       orientation="-28,0"
       id="guide4240" />
    <sodipodi:guide
       position="25,25"
       orientation="0,-28"
       id="guide4242" />
  </sodipodi:namedview>
  <g
     id="document-decrypt"
     transform="translate(0,28)">
    <rect
       style="opacity:0.01000001;fill:#00000f;fill-opacity:0;stroke:none"
       id="rect3008"
       width="22"
       height="22"
       x="5.0495145e-15"
       y="1.9496329e-13" />
    <path
       sodipodi:nodetypes="ssccssscccccccccccccss"
       inkscape:connector-curvature="0"
       id="path3010"
       d="M 11,3 C 8.784,3 7,4.784 7,7 L 7,8 8,8 8,7.5 C 7.999985,5.561 9.338,4 11,4 c 1.662,0 3,1.561 3,3.5 l 0,3.5 -2,0 -4,0 -1,0 -2,0 0,2 0,6 1,0 10,0 1,0 0,-8 -1,0 -1,0 0,-4 C 15,4.784 13.216,3 11,3 Z"
       style="color:#31363b;fill:#4d4d4d;fill-opacity:1" />
  </g>
  <g
     id="document-encrypt"
     transform="translate(0,54)">
    <rect
       y="1.9496329e-13"
       x="5.0495145e-15"
       height="22"
       width="22"
       id="rect3792"
       style="opacity:0.01000001;fill:#00000f;fill-opacity:0;stroke:none" />
    <path
       style="color:#31363b;fill:#4d4d4d;fill-opacity:1"
       d="M 11 57 C 8.784 57 7 58.784 7 61 L 7 65 L 5 65 L 5 67 L 5 73 L 6 73 L 16 73 L 17 73 L 17 65 L 16 65 L 15 65 L 15 61 C 15 58.784 13.216 57 11 57 z M 11 58 C 12.662 58 14 59.561 14 61.5 L 14 65 L 12.662109 65 L 12.638672 65 L 8 65 L 8 61.5 C 8 59.561 9.338 58 11 58 z "
       transform="translate(0,-54)"
       id="path3794" />
  </g>
  <g
     id="22-22-document-open-recent">
    <rect
       style="opacity:0;fill:#4d4d4d;fill-opacity:1;stroke:none"
       id="rect3802"
       width="22"
       height="22"
       x="0"
       y="0" />
  </g>
  <path
     inkscape:connector-curvature="0"
     style="fill:#4d4d4d;fill-opacity:1;stroke:none"
     d="m 4,3 0,16 1,0 5,0 0,-1 -5,0 0,-14 12,0 0,7 1,0 L 18,3 17,3 5,3 4,3 Z m 10,8 c -2.215995,0 -4,1.784005 -4,4 0,2.215995 1.784005,4 4,4 2.215995,0 4,-1.784005 4,-4 0,-2.215995 -1.784005,-4 -4,-4 z m 0,1 c 1.661995,0 3,1.338005 3,3 0,1.661995 -1.338005,3 -3,3 -1.661995,0 -3,-1.338005 -3,-3 0,-1.661995 1.338005,-3 3,-3 z m -1,1 0,2 0,1 1,0 1,0 0,-1 -1,0 0,-2 -1,0 z"
     id="rect4139" />
  <g
     id="document-open-recent"
     transform="translate(-40,0)">
    <path
       id="rect4244"
       d="m 0,-3 0,28 10,0 0,-1 -9,0 0,-26 20,0 0,15 1,0 0,-16 -22,0 z m 16,16 a 6,6 0 0 0 -6,6 6,6 0 0 0 6,6 6,6 0 0 0 6,-6 6,6 0 0 0 -6,-6 z m 0,1 a 5,5 0 0 1 5,5 5,5 0 0 1 -5,5 5,5 0 0 1 -5,-5 5,5 0 0 1 5,-5 z m -1,1 0,5 1,0 3,0 0,-1 -3,0 0,-4 -1,0 z"
       style="opacity:1;fill:#4d4d4d;fill-opacity:1;stroke:none"
       inkscape:connector-curvature="0" />
    <rect
       y="-5"
       x="-5"
       height="32"
       width="32"
       id="rect4262"
       style="opacity:1;fill:none;fill-opacity:1;stroke:none" />
  </g>
</svg>
