<?xml version="1.0" encoding="UTF-8" standalone="no"?>
<!-- Created with Inkscape (http://www.inkscape.org/) -->

<svg
   xmlns:dc="http://purl.org/dc/elements/1.1/"
   xmlns:cc="http://creativecommons.org/ns#"
   xmlns:rdf="http://www.w3.org/1999/02/22-rdf-syntax-ns#"
   xmlns:svg="http://www.w3.org/2000/svg"
   xmlns="http://www.w3.org/2000/svg"
   xmlns:sodipodi="http://sodipodi.sourceforge.net/DTD/sodipodi-0.dtd"
   xmlns:inkscape="http://www.inkscape.org/namespaces/inkscape"
   width="22"
   height="22"
   id="svg3869"
   version="1.1"
   inkscape:version="0.91+devel r"
   sodipodi:docname="drive.svg"
   viewBox="0 0 22 22">
  <defs
     id="defs3871" />
  <sodipodi:namedview
     id="base"
     pagecolor="#ffffff"
     bordercolor="#666666"
     borderopacity="1.0"
     inkscape:pageopacity="0.0"
     inkscape:pageshadow="2"
     inkscape:zoom="22.627417"
     inkscape:cx="10.136547"
     inkscape:cy="8.9739845"
     inkscape:document-units="px"
     inkscape:current-layer="layer1"
     showgrid="true"
     fit-margin-top="0"
     fit-margin-left="0"
     fit-margin-right="0"
     fit-margin-bottom="0"
     inkscape:window-width="2560"
     inkscape:window-height="957"
     inkscape:window-x="-4"
     inkscape:window-y="29"
     inkscape:window-maximized="1"
     inkscape:showpageshadow="false">
    <inkscape:grid
       type="xygrid"
       id="grid4132" />
    <sodipodi:guide
       position="2,20.000017"
       orientation="18,0"
       id="guide4138" />
    <sodipodi:guide
       position="2,2.0000174"
       orientation="0,18"
       id="guide4140" />
    <sodipodi:guide
       position="20,2.0000174"
       orientation="-18,0"
       id="guide4142" />
    <sodipodi:guide
       position="20,20.000017"
       orientation="0,-18"
       id="guide4144" />
    <sodipodi:guide
       position="3,19.000017"
       orientation="16,0"
       id="guide4146" />
    <sodipodi:guide
       position="3,3.0000174"
       orientation="0,16"
       id="guide4148" />
    <sodipodi:guide
       position="19,3.0000174"
       orientation="-16,0"
       id="guide4150" />
    <sodipodi:guide
       position="19,19.000017"
       orientation="0,-16"
       id="guide4152" />
  </sodipodi:namedview>
  <metadata
     id="metadata3874">
    <rdf:RDF>
      <cc:Work
         rdf:about="">
        <dc:format>image/svg+xml</dc:format>
        <dc:type
           rdf:resource="http://purl.org/dc/dcmitype/StillImage" />
        <dc:title />
      </cc:Work>
    </rdf:RDF>
  </metadata>
  <g
     inkscape:label="Capa 1"
     inkscape:groupmode="layer"
     id="layer1"
     transform="translate(-326,-534.3622)">
    <g
       id="drive-harddisk">
      <rect
         y="534.36218"
         x="326"
         height="22"
         width="22"
         id="rect4319"
         style="opacity:1;fill:#4d4d4d;fill-opacity:0;stroke:none;stroke-width:0.1;stroke-linecap:square;stroke-linejoin:miter;stroke-miterlimit:4;stroke-dasharray:none;stroke-dashoffset:0;stroke-opacity:1" />
      <path
         id="rect4289"
         transform="translate(326,534.3622)"
         d="m 4,3 0,16 2,0 10,0 2,0 L 18,3 4,3 Z M 5,4 17,4 17,16 5,16 5,4 Z M 7.5,5 A 0.5,0.5 0 0 0 7,5.5 0.5,0.5 0 0 0 7.5,6 0.5,0.5 0 0 0 8,5.5 0.5,0.5 0 0 0 7.5,5 Z M 9,5 8,6 9,7 8,8 9,9 10,8 11,7 10,6 9,5 Z M 6.5,7 A 0.5,0.5 0 0 0 6,7.5 0.5,0.5 0 0 0 6.5,8 0.5,0.5 0 0 0 7,7.5 0.5,0.5 0 0 0 6.5,7 Z m 1,2 A 0.5,0.5 0 0 0 7,9.5 0.5,0.5 0 0 0 7.5,10 0.5,0.5 0 0 0 8,9.5 0.5,0.5 0 0 0 7.5,9 Z m 3.5,3 0,1 5,0 0,-1 -5,0 z m 0,2 0,1 5,0 0,-1 -5,0 z m -5,3 10,0 0,1 -10,0 0,-1 z"
         style="opacity:1;fill:#4d4d4d;fill-opacity:1;stroke:none;stroke-width:0.1;stroke-linecap:square;stroke-linejoin:miter;stroke-miterlimit:4;stroke-dasharray:none;stroke-dashoffset:0;stroke-opacity:1"
         inkscape:connector-curvature="0" />
    </g>
    <g
       id="16-16-drive-harddisk">
      <g
         inkscape:label="Capa 1"
         id="layer1-5"
         transform="translate(310,-499)">
        <path
           inkscape:connector-curvature="0"
           style="opacity:1;fill:#4d4d4d;fill-opacity:1;stroke:none"
           d="m 2,2 0,12 1,0 10,0 1,0 L 14,2 2,2 Z m 1,1 10,0 0,7 0,1 -5,0 0,1 -2,0 0,-1 -3,0 0,-1 0,-7 z m 1,1 0,6 8,0 0,-6 -8,0 z m 1,1 1,0 0,2 4,0 0,-2 1,0 0,4 -6,0 0,-4 z m -2,7 2,0 0,1 -2,0 0,-1 z m 6,0 3,0 0,1 -3,0 0,-1 z"
           transform="translate(0,1036.3622)"
           id="rect4142" />
      </g>
      <rect
         y="537.36218"
         x="310"
         height="16"
         width="16"
         id="rect4340"
         style="opacity:1;fill:#4d4d4d;fill-opacity:0;stroke:none;stroke-width:0.11428571;stroke-linecap:square;stroke-linejoin:miter;stroke-miterlimit:4;stroke-dasharray:none;stroke-dashoffset:0;stroke-opacity:1" />
    </g>
  </g>
</svg>
