<?xml version="1.0" encoding="UTF-8" standalone="no"?>
<!-- Created with Inkscape (http://www.inkscape.org/) -->

<svg
   xmlns:dc="http://purl.org/dc/elements/1.1/"
   xmlns:cc="http://creativecommons.org/ns#"
   xmlns:rdf="http://www.w3.org/1999/02/22-rdf-syntax-ns#"
   xmlns:svg="http://www.w3.org/2000/svg"
   xmlns="http://www.w3.org/2000/svg"
   xmlns:sodipodi="http://sodipodi.sourceforge.net/DTD/sodipodi-0.dtd"
   xmlns:inkscape="http://www.inkscape.org/namespaces/inkscape"
   width="22"
   height="22"
   id="svg3869"
   version="1.1"
   inkscape:version="0.91+devel r"
   sodipodi:docname="go.svg"
   viewBox="0 0 22 22">
  <defs
     id="defs3871" />
  <sodipodi:namedview
     id="base"
     pagecolor="#ffffff"
     bordercolor="#666666"
     borderopacity="1.0"
     inkscape:pageopacity="0.0"
     inkscape:pageshadow="2"
     inkscape:zoom="5.6568543"
     inkscape:cx="38.776617"
     inkscape:cy="-14.675343"
     inkscape:document-units="px"
     inkscape:current-layer="layer1"
     showgrid="true"
     fit-margin-top="0"
     fit-margin-left="0"
     fit-margin-right="0"
     fit-margin-bottom="0"
     inkscape:window-width="2560"
     inkscape:window-height="957"
     inkscape:window-x="-4"
     inkscape:window-y="29"
     inkscape:window-maximized="1"
     inkscape:showpageshadow="false">
    <inkscape:grid
       type="xygrid"
       id="grid4132" />
    <sodipodi:guide
       position="2,20.000017"
       orientation="18,0"
       id="guide4138" />
    <sodipodi:guide
       position="2,2.0000174"
       orientation="0,18"
       id="guide4140" />
    <sodipodi:guide
       position="20,2.0000174"
       orientation="-18,0"
       id="guide4142" />
    <sodipodi:guide
       position="20,20.000017"
       orientation="0,-18"
       id="guide4144" />
    <sodipodi:guide
       position="3,19.000017"
       orientation="16,0"
       id="guide4146" />
    <sodipodi:guide
       position="3,3.0000174"
       orientation="0,16"
       id="guide4148" />
    <sodipodi:guide
       position="19,3.0000174"
       orientation="-16,0"
       id="guide4150" />
    <sodipodi:guide
       position="19,19.000017"
       orientation="0,-16"
       id="guide4152" />
  </sodipodi:namedview>
  <metadata
     id="metadata3874">
    <rdf:RDF>
      <cc:Work
         rdf:about="">
        <dc:format>image/svg+xml</dc:format>
        <dc:type
           rdf:resource="http://purl.org/dc/dcmitype/StillImage" />
        <dc:title />
      </cc:Work>
    </rdf:RDF>
  </metadata>
  <g
     inkscape:label="Capa 1"
     inkscape:groupmode="layer"
     id="layer1"
     transform="translate(-326,-534.3622)">
    <g
       id="go-home">
      <rect
         y="534.36218"
         x="326"
         height="22"
         width="22"
         id="rect4180"
         style="opacity:1;fill:none;fill-opacity:1;stroke:none;stroke-width:3.56737041px;stroke-linecap:butt;stroke-linejoin:miter;stroke-miterlimit:4;stroke-dasharray:none;stroke-dashoffset:0;stroke-opacity:1" />
      <path
         id="rect4164"
         d="m 337,537.3622 -0.70703,0.70703 -7.29297,7.29297 0.70703,0.70703 0.29297,-0.29297 0,7.58594 1,0 5,0 3,0 5,0 0,-1 0,-6.58594 0.29297,0.29297 0.70703,-0.70703 -3,-3 0,-3 -3,0 -1.29297,-1.29297 L 337,537.3622 Z m 0,1.41406 6,6 0,7.58594 -4,0 0,-5 -3,0 -1,0 0,5 -4,0 0,-7.58594 6,-6 z"
         style="opacity:1;fill:#4d4d4d;fill-opacity:1;stroke:none"
         inkscape:connector-curvature="0" />
    </g>
    <g
       id="go-down">
      <rect
         y="534.36218"
         x="414"
         height="22"
         width="22"
         id="rect4411"
         style="opacity:1;fill:none;fill-opacity:1;stroke:none;stroke-width:3.56737041px;stroke-linecap:butt;stroke-linejoin:miter;stroke-miterlimit:4;stroke-dasharray:none;stroke-dashoffset:0;stroke-opacity:1" />
      <g
         inkscape:label="Capa 1"
         id="layer1-0"
         transform="translate(414,-496.00002)">
        <path
           inkscape:connector-curvature="0"
           style="fill:#4d4d4d;fill-opacity:1;stroke:none"
           d="M 3.7070312,7 3,7.7070312 l 6.125,6.1249998 1.875,1.875 1.875,-1.875 L 19,7.7070312 18.292969,7 12.167969,13.125 11,14.292969 9.8320312,13.125 3.7070312,7 Z"
           transform="translate(-5e-7,1030.3622)"
           id="rect4176" />
      </g>
    </g>
    <g
       id="go-next">
      <rect
         y="534.36218"
         x="370"
         height="22"
         width="22"
         id="rect4407"
         style="opacity:1;fill:none;fill-opacity:1;stroke:none;stroke-width:3.56737041px;stroke-linecap:butt;stroke-linejoin:miter;stroke-miterlimit:4;stroke-dasharray:none;stroke-dashoffset:0;stroke-opacity:1" />
      <g
         inkscape:label="Capa 1"
         id="layer1-3"
         transform="translate(369.99997,-496)">
        <path
           inkscape:connector-curvature="0"
           style="fill:#4d4d4d;fill-opacity:1;stroke:none"
           d="M 7.7070312,3 7,3.7070312 l 6.125,6.125 L 14.292969,11 13.125,12.167969 7,18.292969 7.7070312,19 13.832031,12.875 15.707031,11 13.832031,9.125 7.7070312,3 Z"
           transform="translate(-5e-7,1030.3622)"
           id="rect4176-0" />
      </g>
    </g>
    <g
       id="go-previous">
      <rect
         style="opacity:1;fill:none;fill-opacity:1;stroke:none;stroke-width:3.56737041px;stroke-linecap:butt;stroke-linejoin:miter;stroke-miterlimit:4;stroke-dasharray:none;stroke-dashoffset:0;stroke-opacity:1"
         id="rect4405"
         width="22"
         height="22"
         x="348"
         y="534.36218" />
      <g
         inkscape:label="Capa 1"
         id="layer1-1"
         transform="translate(348,-496)">
        <path
           inkscape:connector-curvature="0"
           style="fill:#4d4d4d;fill-opacity:1;stroke:none"
           d="m 14.292969,3 -6.1250002,6.125 -1.875,1.875 1.875,1.875 L 14.292969,19 15,18.292969 8.875,12.167969 7.7070312,11 8.875,9.8320312 15,3.7070312 14.292969,3 Z"
           transform="translate(-5e-7,1030.3622)"
           id="rect4176-7" />
      </g>
    </g>
    <g
       id="go-up">
      <rect
         style="opacity:1;fill:none;fill-opacity:1;stroke:none;stroke-width:3.56737041px;stroke-linecap:butt;stroke-linejoin:miter;stroke-miterlimit:4;stroke-dasharray:none;stroke-dashoffset:0;stroke-opacity:1"
         id="rect4409"
         width="22"
         height="22"
         x="392"
         y="534.36218" />
      <g
         inkscape:label="Capa 1"
         id="layer1-2"
         transform="translate(392,-495.00002)">
        <path
           style="fill:#4d4d4d;fill-opacity:1;stroke:none"
           d="m 3.7070307,1044.3622 -0.7070312,-0.707 6.125,-6.125 1.8750005,-1.875 1.875,1.875 6.125,6.125 -0.707032,0.707 -6.125,-6.125 -1.167968,-1.168 -1.1679693,1.168 -6.125,6.125 z"
           id="rect4176-76"
           inkscape:connector-curvature="0" />
      </g>
    </g>
  </g>
</svg>
