<?xml version="1.0" encoding="UTF-8" standalone="no"?>
<!-- Created with Inkscape (http://www.inkscape.org/) -->

<svg
   xmlns:dc="http://purl.org/dc/elements/1.1/"
   xmlns:cc="http://creativecommons.org/ns#"
   xmlns:rdf="http://www.w3.org/1999/02/22-rdf-syntax-ns#"
   xmlns:svg="http://www.w3.org/2000/svg"
   xmlns="http://www.w3.org/2000/svg"
   xmlns:sodipodi="http://sodipodi.sourceforge.net/DTD/sodipodi-0.dtd"
   xmlns:inkscape="http://www.inkscape.org/namespaces/inkscape"
   width="22"
   height="22"
   id="svg3869"
   version="1.1"
   inkscape:version="0.91+devel r"
   sodipodi:docname="input.svg"
   viewBox="0 0 22 22">
  <defs
     id="defs3871" />
  <sodipodi:namedview
     id="base"
     pagecolor="#ffffff"
     bordercolor="#666666"
     borderopacity="1.0"
     inkscape:pageopacity="0.0"
     inkscape:pageshadow="2"
     inkscape:zoom="11.313709"
     inkscape:cx="44.062888"
     inkscape:cy="2.3027427"
     inkscape:document-units="px"
     inkscape:current-layer="layer1"
     showgrid="true"
     fit-margin-top="0"
     fit-margin-left="0"
     fit-margin-right="0"
     fit-margin-bottom="0"
     inkscape:window-width="2560"
     inkscape:window-height="957"
     inkscape:window-x="-4"
     inkscape:window-y="29"
     inkscape:window-maximized="1"
     inkscape:showpageshadow="false"
     showguides="true">
    <inkscape:grid
       type="xygrid"
       id="grid4132" />
    <sodipodi:guide
       position="2,20.000017"
       orientation="18,0"
       id="guide4138" />
    <sodipodi:guide
       position="2,2.0000174"
       orientation="7.25e-07,1"
       id="guide4140" />
    <sodipodi:guide
       position="20,2.0000174"
       orientation="-18,0"
       id="guide4142" />
    <sodipodi:guide
       position="20,20.000017"
       orientation="0,-18"
       id="guide4144" />
    <sodipodi:guide
       position="3,19.000017"
       orientation="16,0"
       id="guide4146" />
    <sodipodi:guide
       position="3,3.0000174"
       orientation="0,16"
       id="guide4148" />
    <sodipodi:guide
       position="19,3.0000174"
       orientation="-16,0"
       id="guide4150" />
    <sodipodi:guide
       position="19,19.000017"
       orientation="0,-16"
       id="guide4152" />
  </sodipodi:namedview>
  <metadata
     id="metadata3874">
    <rdf:RDF>
      <cc:Work
         rdf:about="">
        <dc:format>image/svg+xml</dc:format>
        <dc:type
           rdf:resource="http://purl.org/dc/dcmitype/StillImage" />
        <dc:title />
      </cc:Work>
    </rdf:RDF>
  </metadata>
  <g
     inkscape:label="Capa 1"
     inkscape:groupmode="layer"
     id="layer1"
     transform="translate(-326,-534.3622)">
    <g
       id="input-mouse-battery">
      <rect
         ry="0"
         y="534.36218"
         x="326"
         height="22"
         width="22"
         id="rect4191"
         style="opacity:1;fill:none;fill-opacity:1;stroke:none;stroke-width:3.56737041px;stroke-linecap:butt;stroke-linejoin:miter;stroke-miterlimit:4;stroke-dasharray:none;stroke-dashoffset:0;stroke-opacity:1" />
      <path
         id="rect4154"
         transform="translate(326,534.3622)"
         d="M 13.5,3 C 10.453,3 8,5.676 8,9 l 0,4 c 0,3.324 2.453,6 5.5,6 3.047,0 5.5,-2.676 5.5,-6 L 19,9 C 19,5.676 16.547,3 13.5,3 Z m 0,1 C 15.993,4 18,6.007 18,8.5 l 0,5 C 18,15.993 15.993,18 13.5,18 11.007,18 9,15.993 9,13.5 l 0,-5 C 9,6.007 11.007,4 13.5,4 Z m 0,2 C 13.223,6 13,6.223 13,6.5 l 0,2 C 13,8.777 13.223,9 13.5,9 13.777,9 14,8.777 14,8.5 l 0,-2 C 14,6.223 13.777,6 13.5,6 Z"
         style="opacity:1;fill:#4d4d4d;fill-opacity:1;stroke:none;stroke-width:3.56737041px;stroke-linecap:butt;stroke-linejoin:miter;stroke-miterlimit:4;stroke-dasharray:none;stroke-dashoffset:0;stroke-opacity:1"
         inkscape:connector-curvature="0" />
      <path
         sodipodi:nodetypes="ccccccc"
         inkscape:connector-curvature="0"
         id="path4176"
         d="m 331,537.3622 -2,5 2,0 0,3 2,-5 -2,0 z"
         style="opacity:1;fill:#4d4d4d;fill-opacity:1;stroke:none;stroke-width:0.1;stroke-linecap:square;stroke-linejoin:miter;stroke-miterlimit:4;stroke-dasharray:none;stroke-dashoffset:0;stroke-opacity:1" />
    </g>
    <g
       id="input-keyboard-battery">
      <rect
         ry="0"
         y="556.36237"
         x="370"
         height="32"
         width="32"
         id="rect4378"
         style="opacity:1;fill:none;fill-opacity:1;stroke:none;stroke-width:5.18890285px;stroke-linecap:butt;stroke-linejoin:miter;stroke-miterlimit:4;stroke-dasharray:none;stroke-dashoffset:0;stroke-opacity:1" />
      <path
         id="rect4223"
         transform="translate(326,534.3622)"
         d="m 50,26 0,20 10,4 10,-4 0,-11 -1,0 0,8 -18,0 0,-16 14,0 0,-1 -15,0 z m 18,0 -2,5 2,0 0,3 2,-5 -2,0 0,-3 z M 59.166016,30 55,40 l 1.556641,0 0.99414,-2.564453 4.919922,0 L 63.464844,40 65,40 60.839844,30 59.166016,30 Z M 60,31.332031 l 2.009766,4.976563 -4.011719,0 L 60,31.332031 Z M 51,44 l 18,0 0,1 -18,0 0,-1 z"
         style="opacity:1;fill:#4d4d4d;fill-opacity:1;stroke:none;stroke-width:3.56737041px;stroke-linecap:butt;stroke-linejoin:miter;stroke-miterlimit:4;stroke-dasharray:none;stroke-dashoffset:0;stroke-opacity:1"
         inkscape:connector-curvature="0" />
    </g>
    <g
       id="input-keyboard-brightness">
      <rect
         style="opacity:1;fill:none;fill-opacity:1;stroke:none;stroke-width:5.18890285px;stroke-linecap:butt;stroke-linejoin:miter;stroke-miterlimit:4;stroke-dasharray:none;stroke-dashoffset:0;stroke-opacity:1"
         id="rect4266"
         width="32"
         height="32"
         x="402"
         y="556.36237"
         ry="0" />
      <path
         sodipodi:nodetypes="cccccccccccccccccccccccccccccc"
         inkscape:connector-curvature="0"
         style="opacity:1;fill:#4d4d4d;fill-opacity:1;stroke:none;stroke-width:3.56737041px;stroke-linecap:butt;stroke-linejoin:miter;stroke-miterlimit:4;stroke-dasharray:none;stroke-dashoffset:0;stroke-opacity:1"
         d="m 408,560.3622 0,20 10,4 10,-4 0,-10 -1,0 0,7 -18,0 0,-16 12,0 0,-1 z m 9.16602,4 -4.16602,10 1.55664,0 0.99414,-2.56445 4.91992,0 0.99414,2.56445 1.53516,0 -4.16016,-10 z m 0.83398,1.33203 2.00977,4.97656 -4.01172,0 z m -9,12.66797 18,0 0,1 -18,0 z"
         id="path4270" />
      <path
         id="path4274"
         transform="translate(326,534.3622)"
         d="m 100,25 c -0.277,0 -0.5,0.223 -0.5,0.5 l 0,1 c 0,0.277 0.223,0.5 0.5,0.5 0.277,0 0.5,-0.223 0.5,-0.5 l 0,-1 c 0,-0.277 -0.223,-0.5 -0.5,-0.5 z m -3.181641,1.318359 c -0.127809,0 -0.255581,0.04855 -0.353515,0.146485 -0.195869,0.195868 -0.195869,0.511162 0,0.707031 l 0.707031,0.707031 c 0.195869,0.195869 0.511163,0.195869 0.707031,0 0.195869,-0.195868 0.195869,-0.511162 0,-0.707031 l -0.707031,-0.707031 c -0.09793,-0.09793 -0.225706,-0.146485 -0.353516,-0.146485 z m 6.363281,0 c -0.12781,0 -0.25558,0.04855 -0.35352,0.146485 l -0.70703,0.707031 c -0.19586,0.195869 -0.19586,0.511163 0,0.707031 0.19587,0.195869 0.51117,0.195869 0.70703,0 l 0.70704,-0.707031 c 0.19586,-0.195869 0.19586,-0.511163 0,-0.707031 -0.0979,-0.09793 -0.22571,-0.146485 -0.35352,-0.146485 z M 100,28 c -1.104569,0 -2,0.895431 -2,2 0,1.104569 0.895431,2 2,2 1.10457,0 2,-0.895431 2,-2 0,-1.104569 -0.89543,-2 -2,-2 z m 0,1 0,2 c -0.552285,0 -1,-0.447715 -1,-1 0,-0.552285 0.447715,-1 1,-1 z m -4.5,0.5 c -0.277,0 -0.5,0.223 -0.5,0.5 0,0.277 0.223,0.5 0.5,0.5 l 1,0 c 0.277,0 0.5,-0.223 0.5,-0.5 0,-0.277 -0.223,-0.5 -0.5,-0.5 l -1,0 z m 8,0 c -0.277,0 -0.5,0.223 -0.5,0.5 0,0.277 0.223,0.5 0.5,0.5 l 1,0 c 0.277,0 0.5,-0.223 0.5,-0.5 0,-0.277 -0.223,-0.5 -0.5,-0.5 l -1,0 z m -5.974609,2.474609 c -0.12781,0 -0.255582,0.04855 -0.353516,0.146485 l -0.707031,0.707031 c -0.195869,0.195869 -0.195869,0.511163 0,0.707031 0.195868,0.195869 0.511162,0.195869 0.707031,0 l 0.707031,-0.707031 c 0.195869,-0.195869 0.195869,-0.511163 0,-0.707031 -0.09793,-0.09793 -0.225706,-0.146485 -0.353515,-0.146485 z m 4.949219,0 c -0.12781,0 -0.25558,0.04855 -0.35352,0.146485 -0.19586,0.195868 -0.19586,0.511162 0,0.707031 l 0.70703,0.707031 c 0.19587,0.195869 0.51117,0.195869 0.70704,0 0.19586,-0.195868 0.19586,-0.511162 0,-0.707031 l -0.70704,-0.707031 c -0.0979,-0.09793 -0.2257,-0.146485 -0.35351,-0.146485 z M 100,33 c -0.277,0 -0.5,0.223 -0.5,0.5 l 0,1 c 0,0.277 0.223,0.5 0.5,0.5 0.277,0 0.5,-0.223 0.5,-0.5 l 0,-1 c 0,-0.277 -0.223,-0.5 -0.5,-0.5 z"
         style="opacity:1;fill:#4d4d4d;fill-opacity:1;stroke:none;stroke-width:3.56737041px;stroke-linecap:butt;stroke-linejoin:miter;stroke-miterlimit:4;stroke-dasharray:none;stroke-dashoffset:0;stroke-opacity:1"
         inkscape:connector-curvature="0" />
    </g>
    <g
       id="22-22-input-keyboard-battery">
      <rect
         ry="0"
         y="534.36218"
         x="348"
         height="22"
         width="22"
         id="rect4393"
         style="opacity:1;fill:none;fill-opacity:1;stroke:none;stroke-width:3.56737041px;stroke-linecap:butt;stroke-linejoin:miter;stroke-miterlimit:4;stroke-dasharray:none;stroke-dashoffset:0;stroke-opacity:1" />
      <path
         id="rect4317"
         transform="translate(326,534.3622)"
         d="m 26,3 0,14 7,2 7,-2 0,-5 -1,0 0,2 -12,0 0,-10 8,0 0,-1 -9,0 z m 12,0 -2,5 2,0 0,3 2,-5 -2,0 0,-3 z m -5.5,3 -2.5,6 0.933594,0 0.597656,-1.539062 2.951172,0 L 35.078125,12 36,12 33.503906,6 32.5,6 Z m 0.5,0.7988281 1.207031,2.9863281 -2.408203,0 L 33,6.7988281 Z M 27,15 l 12,0 0,1 -12,0 0,-1 z"
         style="opacity:1;fill:#4d4d4d;fill-opacity:1;stroke:none;stroke-width:3.56737041px;stroke-linecap:butt;stroke-linejoin:miter;stroke-miterlimit:4;stroke-dasharray:none;stroke-dashoffset:0;stroke-opacity:1"
         inkscape:connector-curvature="0" />
    </g>
    <g
       id="22-22-input-keyboard-brightness">
      <rect
         style="opacity:1;fill:none;fill-opacity:1;stroke:none;stroke-width:3.56737041px;stroke-linecap:butt;stroke-linejoin:miter;stroke-miterlimit:4;stroke-dasharray:none;stroke-dashoffset:0;stroke-opacity:1"
         id="rect4313"
         width="22"
         height="22"
         x="370"
         y="534.36218"
         ry="0" />
      <path
         id="path4344"
         transform="translate(326,534.3622)"
         d="m 48,3 0,14 7,2 7,-2 0,-5 -1,0 0,2 -12,0 0,-10 8,0 0,-1 -9,0 z m 12,0 c -1.10457,0 -2,0.89543 -2,2 0,1.10457 0.89543,2 2,2 1.10457,0 2,-0.89543 2,-2 0,-1.10457 -0.89543,-2 -2,-2 z m 0,1 0,2 C 59.44772,6 59,5.55229 59,5 59,4.44772 59.44772,4 60,4 Z m -5.5,2 -2.5,6 0.933594,0 0.597656,-1.539062 2.951172,0 L 57.078125,12 58,12 55.503906,6 54.5,6 Z m 0.5,0.7988281 1.207031,2.9863281 -2.408203,0 L 55,6.7988281 Z M 49,15 l 12,0 0,1 -12,0 0,-1 z"
         style="opacity:1;fill:#4d4d4d;fill-opacity:1;stroke:none;stroke-width:3.56737041px;stroke-linecap:butt;stroke-linejoin:miter;stroke-miterlimit:4;stroke-dasharray:none;stroke-dashoffset:0;stroke-opacity:1"
         inkscape:connector-curvature="0" />
    </g>
  </g>
</svg>
