<?xml version="1.0" encoding="UTF-8" standalone="no"?>
<!-- Created with Inkscape (http://www.inkscape.org/) -->

<svg
   xmlns:dc="http://purl.org/dc/elements/1.1/"
   xmlns:cc="http://creativecommons.org/ns#"
   xmlns:rdf="http://www.w3.org/1999/02/22-rdf-syntax-ns#"
   xmlns:svg="http://www.w3.org/2000/svg"
   xmlns="http://www.w3.org/2000/svg"
   xmlns:sodipodi="http://sodipodi.sourceforge.net/DTD/sodipodi-0.dtd"
   xmlns:inkscape="http://www.inkscape.org/namespaces/inkscape"
   width="22"
   height="22"
   id="svg3869"
   version="1.1"
   inkscape:version="0.91+devel r"
   sodipodi:docname="kgpg.svg"
   viewBox="0 0 22 22">
  <defs
     id="defs3871" />
  <sodipodi:namedview
     id="base"
     pagecolor="#ffffff"
     bordercolor="#666666"
     borderopacity="1.0"
     inkscape:pageopacity="0.0"
     inkscape:pageshadow="2"
     inkscape:zoom="16"
     inkscape:cx="0.16847661"
     inkscape:cy="9.582969"
     inkscape:document-units="px"
     inkscape:current-layer="layer1"
     showgrid="true"
     fit-margin-top="0"
     fit-margin-left="0"
     fit-margin-right="0"
     fit-margin-bottom="0"
     inkscape:window-width="2560"
     inkscape:window-height="957"
     inkscape:window-x="-4"
     inkscape:window-y="29"
     inkscape:window-maximized="1"
     inkscape:showpageshadow="false">
    <inkscape:grid
       type="xygrid"
       id="grid4132"
       originx="0"
       originy="-1.74e-05" />
  </sodipodi:namedview>
  <metadata
     id="metadata3874">
    <rdf:RDF>
      <cc:Work
         rdf:about="">
        <dc:format>image/svg+xml</dc:format>
        <dc:type
           rdf:resource="http://purl.org/dc/dcmitype/StillImage" />
        <dc:title></dc:title>
      </cc:Work>
    </rdf:RDF>
  </metadata>
  <g
     inkscape:label="Capa 1"
     inkscape:groupmode="layer"
     id="layer1"
     transform="translate(-326,-534.36218)">
    <g
       id="kgpg"
       transform="translate(326,534.36218)">
      <path
         id="rect3001"
         d="M 11,3 C 8.784,3 7,4.784 7,7 l 0,3 -2,0 0,2 0,7 1,0 10,0 1,0 0,-9 -1,0 -1,0 0,-3 C 14.999986,4.784 13.216,3 11,3 Z m 0,1 c 1.662,0 3,1.561 3,3.5 L 14,10 8,10 8,7.5 C 7.999985,5.561 9.338,4 11,4 Z m -5,7 10,0 0,7 -10,0 z"
         style="fill:#566060;fill-opacity:1;stroke:none"
         inkscape:connector-curvature="0"
         sodipodi:nodetypes="ssccccccccccssssccssccccc" />
      <rect
         y="0"
         x="0"
         height="22"
         width="22"
         id="rect3906"
         style="opacity:0.01000001;fill:#00000f;fill-opacity:0;stroke:none" />
    </g>
  </g>
</svg>
