<?xml version="1.0" encoding="UTF-8" standalone="no"?>
<!-- Created with Inkscape (http://www.inkscape.org/) -->

<svg
   xmlns:dc="http://purl.org/dc/elements/1.1/"
   xmlns:cc="http://creativecommons.org/ns#"
   xmlns:rdf="http://www.w3.org/1999/02/22-rdf-syntax-ns#"
   xmlns:svg="http://www.w3.org/2000/svg"
   xmlns="http://www.w3.org/2000/svg"
   xmlns:sodipodi="http://sodipodi.sourceforge.net/DTD/sodipodi-0.dtd"
   xmlns:inkscape="http://www.inkscape.org/namespaces/inkscape"
   id="svg4153"
   version="1.1"
   inkscape:version="0.91+devel r"
   width="22"
   height="22"
   sodipodi:docname="network.svg"
   viewBox="0 0 22 22">
  <metadata
     id="metadata4159">
    <rdf:RDF>
      <cc:Work
         rdf:about="">
        <dc:format>image/svg+xml</dc:format>
        <dc:type
           rdf:resource="http://purl.org/dc/dcmitype/StillImage" />
        <dc:title />
      </cc:Work>
    </rdf:RDF>
  </metadata>
  <defs
     id="defs4157" />
  <sodipodi:namedview
     pagecolor="#ffffff"
     bordercolor="#666666"
     borderopacity="1"
     objecttolerance="10"
     gridtolerance="10000"
     guidetolerance="10"
     inkscape:pageopacity="0"
     inkscape:pageshadow="2"
     inkscape:window-width="2560"
     inkscape:window-height="957"
     id="namedview4155"
     inkscape:document-units="px"
     showgrid="true"
     inkscape:showpageshadow="false"
     borderlayer="true"
     inkscape:zoom="8"
     inkscape:cx="-25.212349"
     inkscape:cy="3.2791556"
     inkscape:window-x="-4"
     inkscape:window-y="29"
     inkscape:window-maximized="1"
     inkscape:current-layer="svg4153">
    <inkscape:grid
       type="xygrid"
       id="grid4140" />
    <sodipodi:guide
       position="0,22"
       orientation="22,0"
       id="guide4146" />
    <sodipodi:guide
       position="0,0"
       orientation="0,22"
       id="guide4148" />
    <sodipodi:guide
       position="22,0"
       orientation="-22,0"
       id="guide4150" />
    <sodipodi:guide
       position="22,22"
       orientation="0,-22"
       id="guide4152" />
    <sodipodi:guide
       position="3,19"
       orientation="16,0"
       id="guide4154" />
    <sodipodi:guide
       position="3,3"
       orientation="0,16"
       id="guide4156" />
    <sodipodi:guide
       position="19,3"
       orientation="-16,0"
       id="guide4158" />
    <sodipodi:guide
       position="19,19"
       orientation="0,-16"
       id="guide4160" />
  </sodipodi:namedview>
  <inkscape:clipboard
     style="opacity:0.01000001;fill:#00000f;fill-opacity:0;stroke-width:1;stroke-linecap:butt;stroke-linejoin:miter;stroke-miterlimit:4;stroke-dasharray:none;stroke-dashoffset:0;stroke-opacity:1;stroke:none"
     min="0,0"
     max="22,22" />
  <path
     style="opacity:1;fill:#4d4d4d;fill-opacity:1;stroke:none;stroke-width:0.1;stroke-miterlimit:4;stroke-dasharray:none;stroke-opacity:1"
     d="M 3 3 L 3 9 L 9 9 L 9 3 L 3 3 z M 10 3 L 10 3.0253906 L 10 3.4511719 L 10 4.0253906 C 10.156811 4.0153906 10.313496 4.0029531 10.472656 4.0019531 C 10.981416 4.6169531 11.429835 5.2829 11.796875 6 L 10 6 L 10 7 L 12.246094 7 C 12.614644 7.9428 12.856572 8.9487 12.951172 10 L 10 10 L 10 11 L 13 11 C 13 11.338 12.978819 11.67 12.949219 12 L 13.949219 12 C 13.976319 11.6695 14 11.3377 14 11 L 17.974609 11 C 17.985509 11.1659 18 11.3313 18 11.5 C 18 11.6687 17.985509 11.8341 17.974609 12 L 18.974609 12 C 18.984609 11.8336 19 11.6689 19 11.5 C 19 6.9434 15.447332 3.2559844 10.951172 3.0214844 C 10.466222 2.9994844 10.30819 3 10 3 z M 4 4 L 8 4 L 8 8 L 4 8 L 4 4 z M 11.8125 4.1210938 C 13.26338 4.3754938 14.564706 5.0426 15.597656 6 L 12.896484 6 C 12.591134 5.3383 12.22805 4.7108937 11.8125 4.1210938 z M 13.302734 7 L 16.498047 7 C 17.152607 7.8726 17.625699 8.8883 17.849609 10 L 13.951172 10 C 13.864572 8.9534 13.640494 7.9505 13.302734 7 z M 5 11 L 5 12 L 6 12 L 6 11 L 5 11 z M 13 13 L 13 19 L 19 19 L 19 13 L 13 13 z M 5 14 L 5 15 L 6 15 L 6 14 L 5 14 z M 14 14 L 18 14 L 18 18 L 14 18 L 14 14 z M 5 16 L 5 17 L 6 17 L 6 16 L 5 16 z M 7 16 L 7 17 L 8 17 L 8 16 L 7 16 z M 10 16 L 10 17 L 11 17 L 11 16 L 10 16 z "
     id="rect4183" />
  <g
     id="g4179"
     transform="translate(-29.97466,14.97765)">
    <path
       inkscape:connector-curvature="0"
       id="rect4152"
       d="m 40.97466,12.02235 c -4.155,0 -7.90594,1.67156 -10.61719,4.38281 l 0.70899,0.70899 c 2.5305,-2.5305 6.0302,-4.0918 9.9082,-4.0918 3.878,0 7.3777,1.5613 9.9082,4.0918 l 0.70899,-0.70899 C 48.8806,13.69391 45.12966,12.02235 40.97466,12.02235 Z"
       style="opacity:1;fill:#4d4d4d;fill-opacity:1;stroke:none" />
    <path
       inkscape:connector-curvature="0"
       id="rect4204"
       d="m 40.97466,16.02235 c -3.047,0 -5.79691,1.22659 -7.78516,3.21484 l 0.70704,0.70704 c 1.8075,-1.80751 4.30812,-2.92188 7.07812,-2.92188 2.77,0 5.27062,1.11437 7.07813,2.92188 l 0.70703,-0.70704 c -1.98825,-1.98825 -4.73816,-3.21484 -7.78516,-3.21484 z"
       style="opacity:1;fill:#4d4d4d;fill-opacity:1;stroke:none" />
    <path
       inkscape:connector-curvature="0"
       id="rect4208"
       d="m 40.97466,20.02235 c -1.939,0 -3.68983,0.77967 -4.95508,2.04492 l 0.70899,0.70899 c 1.0845,-1.0845 2.58409,-1.75391 4.24609,-1.75391 1.662,0 3.16159,0.66941 4.24609,1.75391 l 0.70899,-0.70899 c -1.26525,-1.26525 -3.01608,-2.04492 -4.95508,-2.04492 z"
       style="opacity:1;fill:#4d4d4d;fill-opacity:1;stroke:none" />
    <path
       id="rect4155"
       d="m 40.97466,24.02235 c -1.107996,0 -2,0.892004 -2,2 0,1.107996 0.892004,2 2,2 1.107996,0 2,-0.892004 2,-2 0,-1.107996 -0.892004,-2 -2,-2 z m 0,1 c 0.554,0 1,0.446 1,1 0,0.554 -0.446,1 -1,1 -0.554,0 -1,-0.446 -1,-1 0,-0.554 0.446,-1 1,-1 z"
       style="opacity:1;fill:#4d4d4d;fill-opacity:1;stroke:none"
       inkscape:connector-curvature="0" />
  </g>
</svg>
