<?xml version="1.0" encoding="UTF-8" standalone="no"?>
<!-- Created with Inkscape (http://www.inkscape.org/) -->

<svg
   xmlns:dc="http://purl.org/dc/elements/1.1/"
   xmlns:cc="http://creativecommons.org/ns#"
   xmlns:rdf="http://www.w3.org/1999/02/22-rdf-syntax-ns#"
   xmlns:svg="http://www.w3.org/2000/svg"
   xmlns="http://www.w3.org/2000/svg"
   xmlns:sodipodi="http://sodipodi.sourceforge.net/DTD/sodipodi-0.dtd"
   xmlns:inkscape="http://www.inkscape.org/namespaces/inkscape"
   width="32"
   height="32"
   id="svg3869"
   version="1.1"
   inkscape:version="0.91+devel r"
   sodipodi:docname="phone.svg"
   viewBox="0 0 32 32">
  <defs
     id="defs3871" />
  <sodipodi:namedview
     id="base"
     pagecolor="#ffffff"
     bordercolor="#666666"
     borderopacity="1.0"
     inkscape:pageopacity="0.0"
     inkscape:pageshadow="2"
     inkscape:zoom="8"
     inkscape:cx="19.543537"
     inkscape:cy="-3.9559053"
     inkscape:document-units="px"
     inkscape:current-layer="layer1"
     showgrid="true"
     fit-margin-top="0"
     fit-margin-left="0"
     fit-margin-right="0"
     fit-margin-bottom="0"
     inkscape:window-width="2560"
     inkscape:window-height="957"
     inkscape:window-x="-4"
     inkscape:window-y="29"
     inkscape:window-maximized="1"
     inkscape:showpageshadow="false">
    <inkscape:grid
       type="xygrid"
       id="grid4132"
       originx="5"
       originy="4.9999826" />
    <sodipodi:guide
       position="7,25"
       orientation="18,0"
       id="guide4138" />
    <sodipodi:guide
       position="7,7"
       orientation="0,18"
       id="guide4140" />
    <sodipodi:guide
       position="25,7"
       orientation="-18,0"
       id="guide4142" />
    <sodipodi:guide
       position="25,25"
       orientation="0,-18"
       id="guide4144" />
    <sodipodi:guide
       position="8,24"
       orientation="16,0"
       id="guide4146" />
    <sodipodi:guide
       position="8,8"
       orientation="0,16"
       id="guide4148" />
    <sodipodi:guide
       position="24,8"
       orientation="-16,0"
       id="guide4150" />
    <sodipodi:guide
       position="24,24"
       orientation="0,-16"
       id="guide4152" />
    <sodipodi:guide
       position="2,29.999997"
       orientation="28,0"
       id="guide4265" />
    <sodipodi:guide
       position="2,1.9999974"
       orientation="0,28"
       id="guide4267" />
    <sodipodi:guide
       position="30,1.9999974"
       orientation="-28,0"
       id="guide4269" />
    <sodipodi:guide
       position="30,29.999997"
       orientation="0,-28"
       id="guide4271" />
  </sodipodi:namedview>
  <metadata
     id="metadata3874">
    <rdf:RDF>
      <cc:Work
         rdf:about="">
        <dc:format>image/svg+xml</dc:format>
        <dc:type
           rdf:resource="http://purl.org/dc/dcmitype/StillImage" />
        <dc:title />
      </cc:Work>
    </rdf:RDF>
  </metadata>
  <g
     inkscape:label="Capa 1"
     inkscape:groupmode="layer"
     id="layer1"
     transform="translate(-321,-529.36218)">
    <g
       id="phone">
      <rect
         y="529.36218"
         x="321"
         height="32"
         width="32"
         id="rect4436"
         style="opacity:1;fill:none;fill-opacity:1;stroke:none;stroke-width:0.1;stroke-linecap:square;stroke-linejoin:miter;stroke-miterlimit:4;stroke-dasharray:none;stroke-dashoffset:0;stroke-opacity:1" />
      <path
         style="opacity:1;fill:#4d4d4d;fill-opacity:1;stroke:none"
         d="M 8 2 L 8 26 L 8 27 L 8 30 L 24 30 L 24 2 L 8 2 z M 9 3 L 12 3 L 12 4 L 20 4 L 20 3 L 23 3 L 23 4 L 23 5 L 23 7 L 23 26 L 23 27 L 23 28 L 23 29 L 20 29 L 20 28 L 12 28 L 12 29 L 9 29 L 9 28 L 9 27 L 9 26 L 9 6 L 9 5 L 9 4 L 9 3 z "
         transform="translate(321,529.36218)"
         id="rect4232" />
    </g>
    <g
       id="22-22-phone">
      <rect
         y="537.36218"
         x="303"
         height="16"
         width="16"
         id="rect4442"
         style="opacity:1;fill:none;fill-opacity:1;stroke:none;stroke-width:0.10079043;stroke-linecap:square;stroke-linejoin:miter;stroke-miterlimit:4;stroke-dasharray:none;stroke-dashoffset:0;stroke-opacity:1" />
      <path
         id="rect4148"
         d="m 307,539.36218 0,12 8,0 0,-12 -8,0 z m 1,1 2,0 0,1 2,0 0,-1 2,0 0,10 -2,0 0,-1 -2,0 0,1 -2,0 0,-10 z"
         style="opacity:1;fill:#4d4d4d;fill-opacity:1;stroke:none"
         inkscape:connector-curvature="0" />
    </g>
    <g
       id="16-16-kdeconnect"
       transform="translate(-1)">
      <rect
         style="opacity:1;fill:none;fill-opacity:1;stroke:none;stroke-width:0.13858683;stroke-linecap:square;stroke-linejoin:miter;stroke-miterlimit:4;stroke-dasharray:none;stroke-dashoffset:0;stroke-opacity:1"
         id="rect4444"
         width="22"
         height="22"
         x="356"
         y="534.36218" />
      <path
         id="rect4403"
         transform="translate(321,529.36218)"
         d="m 41,8 0,16 10,0 0,-16 -10,0 z m 1,1 2,0 0,1 4,0 0,-1 2,0 0,12 0,1 0,1 -2,0 0,-1 -4,0 0,1 -2,0 0,-1 0,-1 0,-12 z"
         style="opacity:1;fill:#4d4d4d;fill-opacity:1;stroke:none;stroke-width:0.1;stroke-linecap:square;stroke-linejoin:miter;stroke-miterlimit:4;stroke-dasharray:none;stroke-dashoffset:0;stroke-opacity:1"
         inkscape:connector-curvature="0" />
    </g>
    <g
       id="phone-battery"
       transform="translate(0,32)">
      <rect
         style="opacity:1;fill:none;fill-opacity:1;stroke:none;stroke-width:0.1;stroke-linecap:square;stroke-linejoin:miter;stroke-miterlimit:4;stroke-dasharray:none;stroke-dashoffset:0;stroke-opacity:1"
         id="rect4162"
         width="32"
         height="32"
         x="321"
         y="529.36218" />
      <path
         style="opacity:1;fill:#4d4d4d;fill-opacity:1;stroke:none"
         d="m 8,34 0,24 0,1 0,3 16,0 0,-28 -16,0 z m 1,1 3,0 0,1 8,0 0,-1 3,0 0,1 0,1 0,2 0,19 0,1 0,1 0,1 -3,0 0,-1 -8,0 0,1 -3,0 0,-1 0,-1 0,-1 0,-20 0,-1 0,-1 0,-1 z m 7.5,6 -4,8 2.5,0 0,6 4.5,-8 -3,0 0,-6 z"
         transform="translate(321,497.36218)"
         id="path4164"
         inkscape:connector-curvature="0" />
    </g>
    <g
       id="16-16-phone-battery"
       transform="translate(0,32)">
      <rect
         style="opacity:1;fill:none;fill-opacity:1;stroke:none;stroke-width:0.10079043;stroke-linecap:square;stroke-linejoin:miter;stroke-miterlimit:4;stroke-dasharray:none;stroke-dashoffset:0;stroke-opacity:1"
         id="rect4168"
         width="16"
         height="16"
         x="303"
         y="537.36218" />
      <path
         style="opacity:1;fill:#4d4d4d;fill-opacity:1;stroke:none"
         d="m -14,42 0,12 8,0 0,-12 -8,0 z m 1,1 2,0 0,1 2,0 0,-1 2,0 0,10 -2,0 0,-1 -2,0 0,1 -2,0 0,-10 z m 3,2 -2,4 2,0 0,2 2,-4 -2,0 0,-2 z"
         transform="translate(321,497.36218)"
         id="path4170"
         inkscape:connector-curvature="0" />
    </g>
    <g
       transform="translate(-1,32)"
       id="22-22-phone-battery">
      <rect
         y="534.36218"
         x="356"
         height="22"
         width="22"
         id="rect4174"
         style="opacity:1;fill:none;fill-opacity:1;stroke:none;stroke-width:0.13858683;stroke-linecap:square;stroke-linejoin:miter;stroke-miterlimit:4;stroke-dasharray:none;stroke-dashoffset:0;stroke-opacity:1" />
      <path
         style="opacity:1;fill:#4d4d4d;fill-opacity:1;stroke:none;stroke-width:0.1;stroke-linecap:square;stroke-linejoin:miter;stroke-miterlimit:4;stroke-dasharray:none;stroke-dashoffset:0;stroke-opacity:1"
         d="m 40,40 0,16 10,0 0,-16 -10,0 z m 1,1 2,0 0,1 4,0 0,-1 2,0 0,12 0,1 0,1 -2,0 0,-1 -4,0 0,1 -2,0 0,-1 0,-1 0,-12 z m 4,3 -2,5 2,0 0,3 2,-5 -2,0 0,-3 z"
         transform="translate(322,497.36218)"
         id="path4176"
         inkscape:connector-curvature="0" />
    </g>
  </g>
</svg>
