<?xml version="1.0" encoding="UTF-8" standalone="no"?>
<svg
   xmlns:dc="http://purl.org/dc/elements/1.1/"
   xmlns:cc="http://creativecommons.org/ns#"
   xmlns:rdf="http://www.w3.org/1999/02/22-rdf-syntax-ns#"
   xmlns:svg="http://www.w3.org/2000/svg"
   xmlns="http://www.w3.org/2000/svg"
   xmlns:sodipodi="http://sodipodi.sourceforge.net/DTD/sodipodi-0.dtd"
   xmlns:inkscape="http://www.inkscape.org/namespaces/inkscape"
   viewBox="0 0 22 22"
   id="svg"
   version="1.1"
   inkscape:version="0.91+devel r"
   width="100%"
   height="100%"
   sodipodi:docname="printer.svg">
  <defs
     id="defs81">
    <style
       id="current-color-scheme"
       type="text/css">
      .ColorScheme-Text {
        color:#7B7C7E;
      }
      .ColorScheme-Background{
        color:#EFF0F1;
      }
      .ColorScheme-Highlight{
        color:#3DAEE6;
      }
      .ColorScheme-ViewText {
        color:#7B7C7E;
      }
      .ColorScheme-ViewBackground{
        color:#FCFCFC;
      }
      .ColorScheme-ViewHover {
        color:#3DAEE6;
      }
      .ColorScheme-ViewFocus{
        color:#1E92FF;
      }
      .ColorScheme-ButtonText {
        color:#7B7C7E;
      }
      .ColorScheme-ButtonBackground{
        color:#EFF0F1;
      }
      .ColorScheme-ButtonHover {
        color:#3DAEE6;
      }
      .ColorScheme-ButtonFocus{
        color:#1E92FF;
      }
</style>
  </defs>
  <metadata
     id="metadata34">
    <rdf:RDF>
      <cc:Work
         rdf:about="">
        <dc:format>image/svg+xml</dc:format>
        <dc:type
           rdf:resource="http://purl.org/dc/dcmitype/StillImage" />
        <dc:title></dc:title>
      </cc:Work>
    </rdf:RDF>
  </metadata>
  <sodipodi:namedview
     pagecolor="#ffffff"
     bordercolor="#666666"
     borderopacity="1"
     objecttolerance="10"
     gridtolerance="10"
     guidetolerance="10"
     inkscape:pageopacity="0"
     inkscape:pageshadow="2"
     inkscape:window-width="2560"
     inkscape:window-height="957"
     id="namedview32"
     showgrid="true"
     inkscape:zoom="35.818182"
     inkscape:cx="5.0812183"
     inkscape:cy="11"
     inkscape:window-x="-4"
     inkscape:window-y="29"
     inkscape:window-maximized="1"
     inkscape:current-layer="svg"
     borderlayer="true"
     showguides="true"
     inkscape:guide-bbox="true"
     inkscape:snap-bbox="true"
     inkscape:showpageshadow="false">
    <inkscape:grid
       type="xygrid"
       id="grid3060"
       empspacing="5"
       visible="true"
       enabled="true"
       snapvisiblegridlinesonly="true" />
  </sodipodi:namedview>
  <g
     id="printer"
     transform="translate(0,-2)">
    <rect
       y="2"
       x="0"
       height="22"
       width="22"
       id="rect3009"
       style="fill:#ffffff;fill-opacity:0;stroke:none" />
    <path
       id="rect3007"
       transform="translate(0,2)"
       d="m 6,3 0,1 0,3 -2,0 -1,0 0,1 0,6 0,1 2,0 0,1 1,0 0,2 0,1 1,0 8,0 1,0 0,-3 1,0 0,-1 2,0 0,-1 0,-7 -1,0 -2,0 0,-4 -1,0 -8,0 -1,0 z m 1,1 8,0 0,4 -8,0 0,-4 z m -3,4 1,0 0,1 12,0 0,-1 1,0 0,6 -1,0 0,-2 -1,0 -11,0 0,1 0,1 -1,0 0,-6 z m 10,2 0,1 3,0 0,-1 -3,0 z m -7,3 8,0 0,5 -8,0 0,-5 z m 1,1 0,1 6,0 0,-1 -6,0 z m 0,2 0,1 6,0 0,-1 -6,0 z"
       style="fill:#566060;fill-opacity:1;stroke:none"
       inkscape:connector-curvature="0" />
  </g>
</svg>
