<?xml version="1.0" encoding="UTF-8" standalone="no"?>
<svg
   xmlns:dc="http://purl.org/dc/elements/1.1/"
   xmlns:cc="http://creativecommons.org/ns#"
   xmlns:rdf="http://www.w3.org/1999/02/22-rdf-syntax-ns#"
   xmlns:svg="http://www.w3.org/2000/svg"
   xmlns="http://www.w3.org/2000/svg"
   xmlns:sodipodi="http://sodipodi.sourceforge.net/DTD/sodipodi-0.dtd"
   xmlns:inkscape="http://www.inkscape.org/namespaces/inkscape"
   viewBox="0 0 22 22"
   id="svg"
   version="1.1"
   inkscape:version="0.91+devel r"
   width="100%"
   height="100%"
   sodipodi:docname="wallet.svg">
  <defs
     id="defs81">
    <style
       id="current-color-scheme"
       type="text/css">
      .ColorScheme-Text {
        color:#7B7C7E;
      }
      .ColorScheme-Background{
        color:#EFF0F1;
      }
      .ColorScheme-Highlight{
        color:#3DAEE6;
      }
      .ColorScheme-ViewText {
        color:#7B7C7E;
      }
      .ColorScheme-ViewBackground{
        color:#FCFCFC;
      }
      .ColorScheme-ViewHover {
        color:#3DAEE6;
      }
      .ColorScheme-ViewFocus{
        color:#1E92FF;
      }
      .ColorScheme-ButtonText {
        color:#7B7C7E;
      }
      .ColorScheme-ButtonBackground{
        color:#EFF0F1;
      }
      .ColorScheme-ButtonHover {
        color:#3DAEE6;
      }
      .ColorScheme-ButtonFocus{
        color:#1E92FF;
      }
</style>
  </defs>
  <metadata
     id="metadata34">
    <rdf:RDF>
      <cc:Work
         rdf:about="">
        <dc:format>image/svg+xml</dc:format>
        <dc:type
           rdf:resource="http://purl.org/dc/dcmitype/StillImage" />
        <dc:title></dc:title>
      </cc:Work>
    </rdf:RDF>
  </metadata>
  <sodipodi:namedview
     pagecolor="#ffffff"
     bordercolor="#666666"
     borderopacity="1"
     objecttolerance="10"
     gridtolerance="10000"
     guidetolerance="10"
     inkscape:pageopacity="0"
     inkscape:pageshadow="2"
     inkscape:window-width="2560"
     inkscape:window-height="957"
     id="namedview32"
     showgrid="true"
     inkscape:zoom="12.66364"
     inkscape:cx="12.343517"
     inkscape:cy="14.637815"
     inkscape:window-x="-4"
     inkscape:window-y="29"
     inkscape:window-maximized="1"
     inkscape:current-layer="svg"
     borderlayer="true"
     showguides="true"
     inkscape:guide-bbox="true"
     inkscape:snap-bbox="true"
     inkscape:showpageshadow="false">
    <inkscape:grid
       type="xygrid"
       id="grid3060"
       empspacing="5"
       visible="true"
       enabled="true"
       snapvisiblegridlinesonly="true" />
    <sodipodi:guide
       position="0,22"
       orientation="22,0"
       id="guide4146" />
    <sodipodi:guide
       position="0,0"
       orientation="0,22"
       id="guide4148" />
    <sodipodi:guide
       position="22,0"
       orientation="-22,0"
       id="guide4150" />
    <sodipodi:guide
       position="22,22"
       orientation="0,-22"
       id="guide4152" />
    <sodipodi:guide
       position="3,19"
       orientation="16,0"
       id="guide4154" />
    <sodipodi:guide
       position="3,3"
       orientation="0,16"
       id="guide4156" />
    <sodipodi:guide
       position="19,3"
       orientation="-16,0"
       id="guide4158" />
    <sodipodi:guide
       position="19,19"
       orientation="0,-16"
       id="guide4160" />
  </sodipodi:namedview>
  <g
     id="wallet-closed">
    <path
       id="rect4166"
       d="M 3,3 3,19 19,19 19,3 3,3 Z m 8,6 3,0 2,0 2,0 0,2 0,2 -2,0 -2,0 -3,0 C 9.892,13 9,12.108 9,11 9,9.892 9.892,9 11,9 Z m 1,1 a 1,1 0 0 0 -1,1 1,1 0 0 0 1,1 1,1 0 0 0 1,-1 1,1 0 0 0 -1,-1 z"
       style="opacity:1;fill:#4d4d4d;fill-opacity:1;stroke:none;stroke-width:0.1;stroke-linecap:square;stroke-linejoin:miter;stroke-miterlimit:4;stroke-dasharray:none;stroke-dashoffset:0;stroke-opacity:1"
       inkscape:connector-curvature="0" />
    <rect
       y="0"
       x="0"
       height="22"
       width="22"
       id="rect4234"
       style="opacity:1;fill:none;fill-opacity:1;stroke:none;stroke-width:0.1;stroke-linecap:square;stroke-linejoin:miter;stroke-miterlimit:4;stroke-dasharray:none;stroke-dashoffset:0;stroke-opacity:1" />
  </g>
  <g
     id="wallet-open">
    <path
       id="path4194"
       d="m -21,3 0,16 16,0 0,-16 -16,0 z m 1,1 14,0 0,5 0,2 0,2 -2,0 -2,0 -3,0 c -1.108,0 -2,-0.892 -2,-2 l -5,0 0,-7 z m 1,1 0,5 1,0 0,-4 10,0 0,4 1,0 0,-5 -12,0 z m 6,2 a 3,3 0 0 0 -3,3 l 1,0 a 2,2 0 0 1 2,-2 2,2 0 0 1 2,2 l 1,0 a 3,3 0 0 0 -3,-3 z m 1,3 a 1,1 0 0 0 -0.09961,0.0059 1,1 0 0 0 -0.08789,0.01172 1,1 0 0 0 -0.05859,0.01367 1,1 0 0 0 -0.03125,0.0098 1,1 0 0 0 -0.05859,0.01758 1,1 0 0 0 -0.03516,0.01367 1,1 0 0 0 -0.05859,0.02734 1,1 0 0 0 -0.04101,0.01953 1,1 0 0 0 -0.01953,0.01172 1,1 0 0 0 -0.0625,0.03711 1,1 0 0 0 -0.01172,0.0059 1,1 0 0 0 -0.05664,0.04297 1,1 0 0 0 -0.0625,0.05469 1,1 0 0 0 -0.02344,0.02149 1,1 0 0 0 -0.02149,0.02344 1,1 0 0 0 -0.05469,0.0625 1,1 0 0 0 -0.04883,0.06836 1,1 0 0 0 -0.03711,0.0625 1,1 0 0 0 -0.01172,0.01953 1,1 0 0 0 -0.01953,0.04101 1,1 0 0 0 -0.02734,0.05859 1,1 0 0 0 -0.01367,0.03516 1,1 0 0 0 -0.01758,0.05859 1,1 0 0 0 -0.0098,0.03125 1,1 0 0 0 -0.01367,0.05859 1,1 0 0 0 -0.01172,0.08789 A 1,1 0 0 0 -13,11 a 1,1 0 0 0 0.0059,0.09961 1,1 0 0 0 0.01172,0.08399 1,1 0 0 0 0,0.0039 1,1 0 0 0 0.01367,0.05859 1,1 0 0 0 0.0039,0.0098 1,1 0 0 0 0.002,0.01172 1,1 0 0 0 0.0039,0.0098 1,1 0 0 0 0.0078,0.02734 1,1 0 0 0 0.0098,0.03125 1,1 0 0 0 0.0059,0.01367 1,1 0 0 0 0.0039,0.01367 1,1 0 0 0 0.0039,0.0078 1,1 0 0 0 0.02734,0.05859 1,1 0 0 0 0.0098,0.02344 1,1 0 0 0 0.0098,0.01758 1,1 0 0 0 0.01172,0.01953 1,1 0 0 0 0.03711,0.0625 1,1 0 0 0 0.002,0.0059 1,1 0 0 0 0.0039,0.0059 1,1 0 0 0 0.04297,0.05664 1,1 0 0 0 0.05469,0.0625 1,1 0 0 0 0.01758,0.01953 1,1 0 0 0 0.0039,0.0039 1,1 0 0 0 0.02344,0.02149 1,1 0 0 0 0.0625,0.05469 1,1 0 0 0 0.06836,0.04883 1,1 0 0 0 0.0625,0.03711 1,1 0 0 0 0.01172,0.0078 1,1 0 0 0 0.0078,0.0039 1,1 0 0 0 0.04101,0.01953 1,1 0 0 0 0.05859,0.02734 1,1 0 0 0 0.0098,0.0039 1,1 0 0 0 0.02539,0.0098 1,1 0 0 0 0.01563,0.0039 1,1 0 0 0 0.04297,0.01367 1,1 0 0 0 0.01563,0.0059 1,1 0 0 0 0.01563,0.0039 1,1 0 0 0 0.02149,0.0059 A 1,1 0 0 0 -12,12 a 1,1 0 0 0 0.09961,-0.0059 1,1 0 0 0 0.08399,-0.01172 1,1 0 0 0 0.07226,-0.01758 1,1 0 0 0 0.01172,-0.002 1,1 0 0 0 0.0098,-0.0039 1,1 0 0 0 0.02734,-0.0078 1,1 0 0 0 0.04492,-0.01563 1,1 0 0 0 0.01367,-0.0039 1,1 0 0 0 0.0078,-0.0039 1,1 0 0 0 0.05859,-0.02734 1,1 0 0 0 0.02344,-0.0098 1,1 0 0 0 0.01758,-0.0098 1,1 0 0 0 0.01953,-0.01172 1,1 0 0 0 0.0625,-0.03711 1,1 0 0 0 0.06836,-0.04883 1,1 0 0 0 0.0625,-0.05469 1,1 0 0 0 0.01367,-0.01172 1,1 0 0 0 0.02539,-0.02734 1,1 0 0 0 0.0059,-0.0059 1,1 0 0 0 0.05469,-0.0625 1,1 0 0 0 0.04883,-0.06836 1,1 0 0 0 0.03711,-0.0625 1,1 0 0 0 0.0078,-0.01172 1,1 0 0 0 0.0039,-0.0078 1,1 0 0 0 0.01953,-0.04101 1,1 0 0 0 0.02734,-0.05859 1,1 0 0 0 0.0039,-0.0098 1,1 0 0 0 0.01367,-0.04102 1,1 0 0 0 0.01367,-0.04297 1,1 0 0 0 0.0059,-0.01563 1,1 0 0 0 0.0098,-0.03711 1,1 0 0 0 0.0059,-0.02539 1,1 0 0 0 0.01367,-0.09961 A 1,1 0 0 0 -11,11 a 1,1 0 0 0 -0.0059,-0.09961 1,1 0 0 0 -0.01172,-0.08789 1,1 0 0 0 -0.01367,-0.05859 1,1 0 0 0 -0.0098,-0.03125 1,1 0 0 0 -0.01758,-0.05859 1,1 0 0 0 -0.01367,-0.03516 1,1 0 0 0 -0.02734,-0.05859 1,1 0 0 0 -0.01953,-0.04101 1,1 0 0 0 -0.01172,-0.01953 1,1 0 0 0 -0.03711,-0.0625 1,1 0 0 0 -0.04883,-0.06836 1,1 0 0 0 -0.05469,-0.0625 1,1 0 0 0 -0.02149,-0.02344 1,1 0 0 0 -0.02344,-0.02149 1,1 0 0 0 -0.0625,-0.05469 1,1 0 0 0 -0.06836,-0.04883 1,1 0 0 0 -0.0625,-0.03711 1,1 0 0 0 -0.01953,-0.01172 1,1 0 0 0 -0.04101,-0.01953 1,1 0 0 0 -0.05859,-0.02734 1,1 0 0 0 -0.03516,-0.01367 1,1 0 0 0 -0.05859,-0.01758 1,1 0 0 0 -0.03125,-0.0098 1,1 0 0 0 -0.05859,-0.01367 1,1 0 0 0 -0.08789,-0.01172 A 1,1 0 0 0 -12,10 Z"
       style="opacity:1;fill:#4d4d4d;fill-opacity:1;stroke:none;stroke-width:0.1;stroke-linecap:square;stroke-linejoin:miter;stroke-miterlimit:4;stroke-dasharray:none;stroke-dashoffset:0;stroke-opacity:1"
       inkscape:connector-curvature="0" />
    <rect
       style="opacity:1;fill:none;fill-opacity:1;stroke:none;stroke-width:0.1;stroke-linecap:square;stroke-linejoin:miter;stroke-miterlimit:4;stroke-dasharray:none;stroke-dashoffset:0;stroke-opacity:1"
       id="rect4236"
       width="22"
       height="22"
       x="-24"
       y="0" />
  </g>
</svg>
